<?xml version="1.0" encoding="UTF-8" standalone="no"?><!DOCTYPE svg PUBLIC "-//W3C//DTD SVG 1.1//EN" "http://www.w3.org/Graphics/SVG/1.1/DTD/svg11.dtd"><svg width="100%" height="100%" viewBox="0 0 1377 1303" version="1.1" xmlns="http://www.w3.org/2000/svg" xmlns:xlink="http://www.w3.org/1999/xlink" xml:space="preserve" xmlns:serif="http://www.serif.com/" style="fill-rule:evenodd;clip-rule:evenodd;stroke-linejoin:round;stroke-miterlimit:2;"><g><path d="M1247.06,1256.09c-0,25.396 -109.251,45.984 -244.001,45.984c-134.77,-0 -244.016,-20.588 -244.016,-45.984c-0,-25.395 109.246,-45.983 244.016,-45.983c134.75,0 244.001,20.588 244.001,45.983Z" style="fill:#bbc0c9;fill-rule:nonzero;"/><rect x="1133.93" y="695.232" width="28.792" height="557.475" style="fill:#02012d;fill-rule:nonzero;"/><path d="M1298.81,715.645l-300.916,-0c-9.292,-0 -16.833,-7.529 -16.833,-16.813l-0,-17.404c-0,-9.283 7.541,-16.812 16.833,-16.812l300.916,-0c9.292,-0 16.834,7.529 16.834,16.812l-0,17.404c-0,9.284 -7.542,16.813 -16.834,16.813Z" style="fill:#ff6639;fill-rule:nonzero;"/><path d="M1104.35,539.591l0,-2.225c0,-2.092 -1.708,-3.788 -3.792,-3.788l-5.333,0c-2.083,0 -3.791,1.696 -3.791,3.788l-0,2.225c-0,2.096 1.708,3.779 3.791,3.779l5.333,-0c2.084,-0 3.792,-1.683 3.792,-3.779Zm19.334,-23.288l-4.042,0l-0,10.975c-0,2.2 -0.334,4.329 -1.042,6.3c-2.587,7.838 -10,13.471 -18.712,13.471c-5.454,0 -10.417,-2.225 -13.996,-5.788c-3.542,-3.57 -5.75,-8.52 -5.75,-13.983l-0,-15.033c-0,-9.442 3.75,-18.496 10.416,-25.154l8.626,-8.642l-36,0l-13.625,13.637c-7.167,7.188 -11.25,16.913 -11.25,27.076l-0,10.316c-0,4.729 1.579,9.1 4.245,12.604l-8.291,8.288l-0.121,0.046l-14.667,-34.405l-2.708,-6.312l0.125,-0.054l41.125,-41.133l4.958,-4.976c13.913,-13.9 32.746,-21.704 52.417,-21.704l174.458,0l0,-85.733l85.708,0l0,110.275c0,29.5 -23.916,53.438 -53.416,53.438l-143.542,-0c-3.5,6.245 -9.125,11.158 -15.875,13.758c-3.458,1.325 -7.208,2.062 -11.083,2.062c-3.917,0 -7.667,-0.725 -11.125,-2.054c-4.25,-1.637 -8.042,-4.196 -11.167,-7.433c-1.25,-1.275 -2.25,-2.721 -3.208,-4.229l-2.458,-5.613Z" style="fill:#ffc3a8;fill-rule:nonzero;"/><rect x="1289.85" y="340.182" width="85.708" height="15.917" style="fill:#02012d;fill-rule:nonzero;"/><path d="M1042.72,342.07l-87.292,-0l0,-7.879c0,-62.888 50.959,-113.855 113.834,-113.855l37.329,0c-0,20.9 16.921,37.842 37.838,37.842c10.416,0 19.916,-4.229 26.749,-11.079c6.834,-6.842 11.042,-16.308 11.042,-26.763l97.042,0c53.167,0 96.291,43.13 96.291,96.309l0,23.537l-85.708,0l0,101.65l-174.458,0c-19.671,0 -38.504,7.804 -52.417,21.704l-4.958,4.976l-15.292,-0l0,-126.442Z" style="fill:#fff;fill-rule:nonzero;"/><path d="M976.597,1017.53l-121.017,0l0,-242.8c0,-26.479 10.521,-51.871 29.246,-70.596l112.854,-112.841l16.875,-16.875l277.292,-0l0,-17.538l-254.917,0l-1.791,-4.112l-1,-2.35l0.121,-0.046l8.291,-8.288c3.838,5.042 9.875,8.288 16.667,8.288c5.796,-0 11.004,-2.342 14.796,-6.109c3.75,-3.787 6.125,-9.02 6.125,-14.783l-0,-2.2c-0,5.463 2.208,10.413 5.75,13.983c3.579,3.563 8.542,5.788 13.996,5.788c8.712,0 16.125,-5.633 18.712,-13.471l21.917,0c3.458,1.329 7.208,2.054 11.125,2.054c3.875,0 7.625,-0.737 11.083,-2.062l0,0.008l140.25,0l-0,74.125c-0,0 1.542,85.717 -62.583,85.717l-122.958,122.942l-0,220.558l-140.834,-0l0,-19.392Z" style="fill:#2c42ce;fill-rule:nonzero;"/><path d="M1302.97,519.812l-0,13.766l-140.25,0l0,-0.008c6.75,-2.6 12.375,-7.513 15.875,-13.758l124.375,-0Z" style="fill:#02012d;fill-rule:nonzero;"/><rect x="1036.93" y="556.878" width="254.917" height="17.537" style="fill:#bbcdff;fill-rule:nonzero;"/><path d="M1258.85,62.503c13.917,13.888 13.917,36.434 0,50.329l-21.708,21.725l-4.292,-4.275l-61.75,-61.779l-35.75,-35.729l8.708,-8.708l0.501,0.521l20.333,20.349c3.542,3.517 9.208,3.517 12.75,0c1.75,-1.77 2.625,-4.045 2.625,-6.366c-0,-2.279 -0.875,-4.596 -2.625,-6.346l-16.417,-16.413l-4.375,-4.35l-0.083,-0.095l0.292,-0.325c13.916,-13.888 36.458,-13.888 50.333,-0l51.458,51.462Z" style="fill:#fff;fill-rule:nonzero;"/><path d="M1101.06,153.82l0,-4.879l-17.041,-0l-0,4.879c-0,1.962 0.958,3.742 2.5,5.037c1.541,1.284 3.667,2.071 6.037,2.071c4.667,0 8.504,-3.179 8.504,-7.108Zm5.538,51.537c-17.079,-8.116 -31.121,-21.55 -39.996,-38.158l0,-0.021c1.083,-6.475 4.459,-12.183 9.246,-16.283c4.75,-4.079 11,-6.55 17.792,-6.55c15.129,-0 27.421,12.271 27.421,27.421l-0,10.5c13,-0 23.5,-10.525 23.5,-23.517l-0,-41.737c-0,-3.1 -1.25,-5.905 -3.292,-7.942c-2,-2.029 -4.834,-3.263 -7.917,-3.263c-5.375,0 -9.666,-4.337 -9.666,-9.679l-0,-15.429l20.875,-11.75c3.583,-0.296 7.208,-0.446 10.791,-0.446l15.75,0l61.75,61.779l-0.042,0.055c-0.749,13.358 -4.416,25.92 -10.416,37.058l-30.958,-22.209c7.708,-4.133 13,-12.312 13,-21.691c-0,-11.479 -7.875,-21.096 -18.501,-23.817c0,-4.183 -3.374,-7.562 -7.583,-7.562l-8.333,-0c-7,-0 -12.709,5.695 -12.709,12.72l0,108.171c-4.166,0.604 -8.416,0.909 -12.749,0.909c-11.959,-0 -23.376,-2.363 -33.755,-6.684c-1.412,-0.591 -2.829,-1.216 -4.208,-1.875Z" style="fill:#ffd105;fill-rule:nonzero;"/><path d="M1191.43,145.186l30.958,22.209c-8.917,16.596 -23.042,30.021 -40.167,38.079c-1.291,0.629 -2.583,1.212 -3.916,1.758c-6.626,2.742 -13.667,4.709 -21.001,5.775l0,-108.171c0,-7.025 5.709,-12.72 12.709,-12.72l8.333,-0c4.209,-0 7.583,3.379 7.583,7.562c10.626,2.721 18.501,12.338 18.501,23.817c-0,9.379 -5.292,17.558 -13,21.691Zm-18.917,-10.812c3,-2.688 4.916,-6.625 4.916,-11.029c0,-4.263 -1.791,-8.117 -4.708,-10.813l-0,-0.045c-3.625,2.366 -5.958,6.412 -5.958,11.008c-0,4.533 2.25,8.516 5.75,10.879Z" style="fill:#ffc3a8;fill-rule:nonzero;"/><path d="M1182.22,205.474l0,14.862c0,10.455 -4.208,19.921 -11.042,26.763c-6.833,6.85 -16.333,11.079 -26.749,11.079c-20.917,0 -37.838,-16.942 -37.838,-37.842l-0,-14.979c1.379,0.659 2.796,1.284 4.208,1.875c10.379,4.321 21.796,6.684 33.755,6.684c4.333,-0 8.583,-0.305 12.749,-0.909c7.334,-1.066 14.375,-3.033 21.001,-5.775c1.333,-0.546 2.625,-1.129 3.916,-1.758Z" style="fill:#ffc3a8;fill-rule:nonzero;"/><path d="M1177.64,32.224c1.75,1.75 2.625,4.067 2.625,6.346c-0,2.321 -0.875,4.596 -2.625,6.366c-3.542,3.517 -9.208,3.517 -12.75,0l-20.333,-20.349l-0.501,-0.521l12.709,-12.7l0.083,0.095l4.375,4.35l16.417,16.413Z" style="fill:#02012d;fill-rule:nonzero;"/><path d="M1172.72,112.532c2.917,2.696 4.708,6.55 4.708,10.813c0,4.404 -1.916,8.341 -4.916,11.029c-3.5,-2.363 -5.75,-6.346 -5.75,-10.879c-0,-4.596 2.333,-8.642 5.958,-11.008l-0,0.045Z" style="fill:#02012d;fill-rule:nonzero;"/><path d="M1144.56,68.949l-20.875,11.75l-4.959,2.792l-15.958,8.958c-13,7.317 -27.708,11.158 -42.625,11.158l-3.75,0c-24.333,0 -44.083,-19.737 -44.083,-44.091c-0,-3.475 0.416,-6.855 1.166,-10.1c0.792,-3.25 1.875,-6.359 3.334,-9.271c8.749,-17.933 29.25,-26.979 48.749,-22.692l69.792,15.321l35.75,35.729l-15.75,0c-3.583,0 -7.208,0.15 -10.791,0.446Z" style="fill:#ff6639;fill-rule:nonzero;"/><path d="M1144.56,117.012l-0,41.737c-0,12.992 -10.5,23.517 -23.5,23.517l-0,-10.5c-0,-15.15 -12.292,-27.421 -27.421,-27.421c-6.792,-0 -13.042,2.471 -17.792,6.55c-4.787,4.1 -8.163,9.808 -9.246,16.283c-6.667,-12.4 -10.417,-26.579 -10.417,-41.633c0,-7.575 0.955,-14.933 2.751,-21.938l1.208,0c14.917,0 29.625,-3.841 42.625,-11.158l15.958,-8.958l4.959,-2.792l-0,15.429c-0,5.342 4.291,9.679 9.666,9.679c3.083,0 5.917,1.234 7.917,3.263c2.042,2.037 3.292,4.842 3.292,7.942Zm-59.917,17.866c0.662,-0.604 1.583,-0.971 2.583,-0.971l8.209,0c1.125,0.596 2.37,0.929 3.75,0.929c4.374,0 7.995,-3.57 7.995,-7.983c0,-4.416 -3.621,-7.996 -7.995,-7.996c-2.792,0 -5.209,1.392 -6.63,3.517c-1.454,-2.125 -3.87,-3.517 -6.662,-3.517c-4.417,0 -7.963,3.58 -7.963,7.996c0,3.938 2.796,7.188 6.546,7.867l0.167,0.158Z" style="fill:#ffc3a8;fill-rule:nonzero;"/><path d="M1143.01,1182.95l-0,12.179c-0,8.129 -6.584,14.721 -14.708,14.721l-39.751,-0c-4.295,-0 -7.833,-3.183 -8.375,-7.304c-0.041,-0.367 -0.087,-0.746 -0.087,-1.133l-0,-23.484c-0,0 15.171,-4.346 29.421,-12.312c8.833,-4.909 17.292,-11.2 21.666,-18.688c0,0 11.834,18.233 11.834,36.021Z" style="fill:#fff;fill-rule:nonzero;"/><path d="M1140.51,533.578l-21.917,0c0.708,-1.971 1.042,-4.1 1.042,-6.3l-0,-10.975l4.042,0l2.458,5.613c0.958,1.508 1.958,2.954 3.208,4.229c3.125,3.237 6.917,5.796 11.167,7.433Z" style="fill:#02012d;fill-rule:nonzero;"/><path d="M1131.18,1142.08l0,4.846c-4.374,7.488 -12.833,13.779 -21.666,18.688l-14.292,-12.875c-1.958,-1.759 -4.5,-2.738 -7.125,-2.738l-4.041,0c-3.75,0 -7.334,-1.45 -10,-4.05c-3.963,-3.808 -8.834,-8.392 -13.959,-13.121c0,0 39.042,-7.187 49.417,-44.071l7.292,9.842c9.333,12.571 14.374,27.821 14.374,43.479Z" style="fill:#ff6639;fill-rule:nonzero;"/><path d="M1109.51,1088.75l-0,0.012c-10.375,36.884 -49.417,44.071 -49.417,44.071c-8.542,-7.954 -17.75,-16.337 -24.25,-22.216l11.167,-11.546c2.167,1.896 4.912,3.246 8.458,3.625c16.875,1.821 31.042,-15.046 31.458,-27.808l0,-21.888l18.709,-0l-7.75,20.062l11.625,15.688Z" style="fill:#2c42ce;fill-rule:nonzero;"/><path d="M1028.76,1159.62l16.954,-16.93l-9.871,-9.854l-17.416,16.425l10.333,10.359Zm66.458,-6.875l14.292,12.875c-14.25,7.966 -29.421,12.312 -29.421,12.312l-0,6.129l-17.792,0l0,-5.675l-19.037,-10.066c-3.083,-1.621 -6.834,-1.146 -9.375,1.175l-14.042,12.712c-0.712,0.646 -1.458,1.271 -2.254,1.854c-9.662,-21.279 -20.079,-34.541 -28.579,-42.7c-0,0 3,-2.3 7.333,-5.912c1.375,1.391 2.5,2.85 3.333,4.35c0.75,1.346 2.167,2.112 3.584,2.112c0.666,0 1.375,-0.162 2,-0.508c1.958,-1.1 2.708,-3.592 1.583,-5.575c-1.125,-2.042 -2.583,-3.95 -4.25,-5.712c1.625,-1.421 3.292,-2.934 5,-4.509c0.542,0.7 1.042,1.425 1.458,2.159c0.75,1.358 2.125,2.116 3.584,2.116c0.666,0 1.333,-0.162 2,-0.508c1.958,-1.1 2.667,-3.596 1.583,-5.579c-0.75,-1.35 -1.667,-2.646 -2.667,-3.888c1.917,-1.917 3.792,-3.862 5.496,-5.783c0.296,0.367 0.584,0.733 0.838,1.112c0.787,1.154 2.083,1.771 3.371,1.771c0.796,0 1.625,-0.225 2.337,-0.725c1.871,-1.271 2.329,-3.829 1.042,-5.696c-0.417,-0.65 -0.917,-1.283 -1.458,-1.887c3.499,-1.404 7.666,-0.8 10.666,1.921c6.5,5.879 15.708,14.262 24.25,22.216c5.125,4.729 9.996,9.313 13.959,13.121c2.666,2.6 6.25,4.05 10,4.05l4.041,0c2.625,0 5.167,0.979 7.125,2.738Z" style="fill:#fff;fill-rule:nonzero;"/><path d="M1101.56,125.645c0,-2.204 -1.754,-3.996 -3.958,-3.996c-2.208,-0 -4.004,1.792 -4.004,3.996c-0,2.208 1.796,3.991 4.004,3.991c2.204,0 3.958,-1.783 3.958,-3.991Zm-2.374,-6.788c4.374,0 7.995,3.58 7.995,7.996c0,4.413 -3.621,7.983 -7.995,7.983c-1.38,0 -2.625,-0.333 -3.75,-0.929c-1.167,-0.612 -2.167,-1.521 -2.88,-2.608c-0.871,-1.254 -1.371,-2.796 -1.371,-4.446c0,-1.662 0.5,-3.196 1.371,-4.479c1.421,-2.125 3.838,-3.517 6.63,-3.517Z" style="fill:#fff;fill-rule:nonzero;"/><path d="M1104.35,537.366l0,2.225c0,2.096 -1.708,3.779 -3.792,3.779l-5.333,-0c-2.083,-0 -3.791,-1.683 -3.791,-3.779l-0,-2.225c-0,-2.092 1.708,-3.788 3.791,-3.788l5.333,0c2.084,0 3.792,1.696 3.792,3.788Z" style="fill:#ffb6ec;fill-rule:nonzero;"/><path d="M1101.06,148.941l0,4.879c0,3.929 -3.837,7.108 -8.504,7.108c-2.37,0 -4.496,-0.787 -6.037,-2.071c-1.542,-1.295 -2.5,-3.075 -2.5,-5.037l-0,-1.275l11.917,-0l-0,-3.604l5.124,-0Z" style="fill:#02012d;fill-rule:nonzero;"/><path d="M1097.6,121.649c2.204,-0 3.958,1.792 3.958,3.996c0,2.208 -1.754,3.991 -3.958,3.991c-2.208,0 -4.004,-1.783 -4.004,-3.991c-0,-2.204 1.796,-3.996 4.004,-3.996Z" style="fill:#02012d;fill-rule:nonzero;"/><path d="M1068.22,537.032l0,-2.825c0,-2.654 -2.167,-4.825 -4.796,-4.825l-11.329,0c-2.667,0 -4.792,2.171 -4.792,4.825l0,2.825c0,2.675 2.125,4.825 4.792,4.825l11.329,0c2.629,0 4.796,-2.15 4.796,-4.825Zm30.959,-58.583l-8.626,8.642c-6.666,6.658 -10.416,15.712 -10.416,25.154l-0,17.233c-0,5.763 -2.375,10.996 -6.125,14.783c-3.792,3.767 -9,6.109 -14.796,6.109c-6.792,-0 -12.829,-3.246 -16.667,-8.288c-2.666,-3.504 -4.245,-7.875 -4.245,-12.604l-0,-10.316c-0,-10.163 4.083,-19.888 11.25,-27.076l13.625,-13.637l36,0Z" style="fill:#ffc3a8;fill-rule:nonzero;"/><rect x="1084.01" y="148.941" width="11.917" height="3.604" style="fill:#fff;fill-rule:nonzero;"/><path d="M1047.01,1099.07c-8.042,-7.113 -7.5,-21.909 -7.5,-21.909l-12.75,-0.454l-0,-21.429l-5.088,0l0,-18.358l73.921,-0l0,16.079l-8.667,-0l0,21.888c-0.416,12.762 -14.583,29.629 -31.458,27.808c-3.546,-0.379 -6.291,-1.729 -8.458,-3.625Z" style="fill:#ffb500;fill-rule:nonzero;"/><path d="M1095.43,133.907l-5.792,0c1.167,-0.625 2.167,-1.521 2.912,-2.608c0.713,1.087 1.713,1.996 2.88,2.608Z" style="fill:#ffc3a8;fill-rule:nonzero;"/><path d="M1088.38,125.049c-0,-2.2 -1.788,-3.971 -3.996,-3.971c-2.213,0 -4,1.771 -4,3.971c-0,2.233 1.787,4.012 4,4.012c2.208,0 3.996,-1.779 3.996,-4.012Zm4.166,-2.675c-0.871,1.283 -1.371,2.817 -1.371,4.479c0,1.65 0.5,3.192 1.371,4.446c-0.745,1.087 -1.745,1.983 -2.912,2.608l-2.417,0c-1,0 -1.921,0.367 -2.583,0.971l-0.167,-0.158c-3.75,-0.679 -6.546,-3.929 -6.546,-7.867c0,-4.416 3.546,-7.996 7.963,-7.996c2.792,0 5.208,1.392 6.662,3.517Z" style="fill:#fff;fill-rule:nonzero;"/><path d="M1084.39,121.078c2.208,0 3.996,1.771 3.996,3.971c-0,2.233 -1.788,4.012 -3.996,4.012c-2.213,0 -4,-1.779 -4,-4.012c-0,-2.2 1.787,-3.971 4,-3.971Z" style="fill:#02012d;fill-rule:nonzero;"/><path d="M1080.18,1202.55l-0.087,0.008l-17.792,0l0,-18.496l17.792,0l-0,17.355c-0,0.387 0.046,0.766 0.087,1.133Z" style="fill:#00315a;fill-rule:nonzero;"/><path d="M1068.22,534.207l0,2.825c0,2.675 -2.167,4.825 -4.796,4.825l-11.329,0c-2.667,0 -4.792,-2.15 -4.792,-4.825l0,-2.825c0,-2.654 2.125,-4.825 4.792,-4.825l11.329,0c2.629,0 4.796,2.171 4.796,4.825Z" style="fill:#ffb6ec;fill-rule:nonzero;"/><path d="M1062.3,1178.38l0,26.75c0,4.867 -3.912,8.817 -8.791,8.817l-27.667,0c-0,0 -59.287,18.7 -121.742,0l0,-33.279c0,-0 26.871,19.921 76.955,13.929c7.749,-0.913 16.041,-2.458 24.916,-4.8c4.208,-1.121 8.167,-3.096 11.621,-5.742c0.796,-0.583 1.542,-1.208 2.254,-1.854l14.042,-12.712c2.541,-2.321 6.292,-2.796 9.375,-1.175l19.037,10.066Z" style="fill:#fff;fill-rule:nonzero;"/><path d="M1058.01,468.512l-41.125,41.133l-0.125,0.054l-6.875,-16.058l-3.709,-8.75l0.084,-0.042c2.833,-9.454 11.625,-16.337 22,-16.337l29.75,-0Z" style="fill:#ffc3a8;fill-rule:nonzero;"/><path d="M1047.01,1099.07l-11.167,11.546c-3,-2.721 -7.167,-3.325 -10.666,-1.921c-8.375,-9.921 -25.251,-15 -26.001,-15.229c-0.374,-0.117 -0.791,-0.171 -1.166,-0.171l1.208,-0.25c1.417,-2.663 3.292,-5.2 5.667,-6.767l-2.292,-31l24.167,0l-0,21.429l12.75,0.454c-0,0 -0.542,14.796 7.5,21.909Z" style="fill:#ff6639;fill-rule:nonzero;"/><path d="M1045.72,1142.69l-16.954,16.93l-10.333,-10.359l17.416,-16.425l9.871,9.854Z" style="fill:#00315a;fill-rule:nonzero;"/><path d="M1042.72,357.974l0,110.538l-14.458,-0c-10.375,-0 -19.167,6.883 -22,16.337l-0.084,0.042l-42.166,-98.684l-8.708,-20.408l0.124,-0.042l0,-7.783l87.292,0Z" style="fill:#ffc3a8;fill-rule:nonzero;"/><rect x="955.43" y="342.07" width="87.292" height="15.904" style="fill:#02012d;fill-rule:nonzero;"/><rect x="772.61" y="556.878" width="264.321" height="17.537" style="fill:#bbcdff;fill-rule:nonzero;"/><path d="M1035.14,552.766l1.791,4.112l-263.241,0l-88.113,-206.304c-3.6,-8.471 2.592,-17.871 11.796,-17.871l235.35,0c5.125,0 9.792,3.067 11.792,7.804l10.792,25.292l8.708,20.408l42.166,98.684l3.709,8.75l6.875,16.058l2.708,6.312l14.667,34.405l1,2.35Z" style="fill:#f2f2f2;fill-rule:nonzero;"/><path d="M1026.64,1110.58c1.287,1.867 0.829,4.425 -1.042,5.696c-0.712,0.5 -1.541,0.725 -2.337,0.725c-1.288,0 -2.584,-0.617 -3.371,-1.771c-0.254,-0.379 -0.542,-0.745 -0.838,-1.112c-5.537,-6.688 -17.746,-11.459 -22.204,-12.788l-0.833,-0.366c-1.667,-0.917 -2.5,-2.871 -1.917,-4.738c0.5,-1.779 2.167,-2.933 3.917,-2.933c0.375,-0 0.792,0.054 1.166,0.171c0.75,0.229 17.626,5.308 26.001,15.229c0.541,0.604 1.041,1.237 1.458,1.887Z" style="fill:#fff;fill-rule:nonzero;"/><path d="M1016.22,1123.79c1.084,1.983 0.375,4.479 -1.583,5.579c-0.667,0.346 -1.334,0.508 -2,0.508c-1.459,0 -2.834,-0.758 -3.584,-2.116c-0.416,-0.734 -0.916,-1.459 -1.458,-2.159c-5.166,-6.733 -15.958,-12.225 -20.083,-13.9l-0.042,-0.008c-2.125,-0.863 -3.125,-3.258 -2.25,-5.354c0.5,-1.188 1.458,-2.03 2.625,-2.384c0.834,-0.258 1.792,-0.237 2.708,0.129c0.167,0.076 1.334,0.55 3.125,1.392c4.834,2.329 14.125,7.4 19.875,14.425c1,1.242 1.917,2.538 2.667,3.888Z" style="fill:#fff;fill-rule:nonzero;"/><path d="M1019.05,1114.12c-1.704,1.921 -3.579,3.866 -5.496,5.783c-5.75,-7.025 -15.041,-12.096 -19.875,-14.425l0.167,-0.379c0.5,-0.517 1,-1.013 1.458,-1.488c0,0 0.209,-1.045 0.709,-2.645l0.833,0.366c4.458,1.329 16.667,6.1 22.204,12.788Z" style="fill:#2c42ce;fill-rule:nonzero;"/><path d="M958.055,1142.62c3.667,-3.85 8.209,-8.621 12.959,-13.609c-0,0 7.583,2.342 18,12.346c8.5,8.159 18.917,21.421 28.579,42.7c-3.454,2.646 -7.413,4.621 -11.621,5.742c-8.875,2.342 -17.167,3.887 -24.916,4.8c-8.167,-30.633 -31.376,-43.121 -31.376,-43.121c0,0 3.375,-3.558 8.375,-8.858Z" style="fill:#ff6639;fill-rule:nonzero;"/><path d="M1006.85,1135.82c1.125,1.983 0.375,4.475 -1.583,5.575c-0.625,0.346 -1.334,0.508 -2,0.508c-1.417,0 -2.834,-0.766 -3.584,-2.112c-0.833,-1.5 -1.958,-2.959 -3.333,-4.35c-5.583,-5.742 -14.583,-10.242 -18.25,-11.729c-0.458,-0.196 -0.916,-0.488 -1.292,-0.842c-1.166,-1.125 -1.583,-2.892 -0.958,-4.5c0.875,-2.096 3.25,-3.108 5.375,-2.254c0.084,0.05 0.625,0.266 1.459,0.646c3.708,1.662 13.333,6.408 19.916,13.346c1.667,1.762 3.125,3.67 4.25,5.712Z" style="fill:#fff;fill-rule:nonzero;"/><path d="M1007.6,1125.6c-1.708,1.575 -3.375,3.088 -5,4.509c-6.583,-6.938 -16.208,-11.684 -19.916,-13.346l0.041,-0.055c1.625,-1.725 3.25,-3.4 4.792,-4.995l-0,-0.013c4.125,1.675 14.917,7.167 20.083,13.9Z" style="fill:#2c42ce;fill-rule:nonzero;"/><path d="M996.347,1135.44c-4.333,3.612 -7.333,5.912 -7.333,5.912c-10.417,-10.004 -18,-12.346 -18,-12.346c1.708,-1.82 3.458,-3.666 5.208,-5.512l0.583,-0.625c0.376,0.354 0.834,0.646 1.292,0.842c3.667,1.487 12.667,5.987 18.25,11.729Z" style="fill:#2c42ce;fill-rule:nonzero;"/><path d="M987.68,1103.29l0.167,0.671c-1.167,0.354 -2.125,1.196 -2.625,2.384c-0.875,2.096 0.125,4.491 2.25,5.354l0.042,0.008l-0,0.013c-1.542,1.595 -3.167,3.27 -4.792,4.995l-0.041,0.055c-0.834,-0.38 -1.375,-0.596 -1.459,-0.646c-2.125,-0.854 -4.5,0.158 -5.375,2.254c-0.625,1.608 -0.208,3.375 0.958,4.5l-0.583,0.625c-1.75,1.846 -3.5,3.692 -5.208,5.512c-4.75,4.988 -9.292,9.759 -12.959,13.609l-0.75,-0.7c-1.958,-1.771 -4.5,-2.742 -7.125,-2.742l-4.041,0c-3.75,0 -7.334,-1.458 -10.042,-4.046c-3.916,-3.812 -8.792,-8.383 -13.916,-13.12c-0,-0 39.041,-7.2 49.416,-44.084l0,-0.012l7.292,9.854c3.583,4.825 6.541,10.037 8.791,15.516Z" style="fill:#ff6639;fill-rule:nonzero;"/><path d="M971.597,1077.92l0,0.012c-10.375,36.884 -49.416,44.084 -49.416,44.084c-8.563,-7.955 -17.767,-16.342 -24.255,-22.221l11.184,-11.559c2.141,1.9 4.904,3.25 8.446,3.638c16.875,1.825 31,-15.042 31.458,-27.809l-0,-21.895l18.708,-0l-7.75,20.062l11.625,15.688Z" style="fill:#2c42ce;fill-rule:nonzero;"/><path d="M981.056,1194.6c-50.084,5.992 -76.955,-13.929 -76.955,-13.929c0,-0 -1.375,-8.213 10.488,-11.859c2.091,-0.637 4.467,-1.574 7.05,-2.7c12.208,-5.295 28.041,-14.633 28.041,-14.633c0,0 23.209,12.488 31.376,43.121Z" style="fill:#fff;fill-rule:nonzero;"/><path d="M890.847,1148.8l16.929,-16.934l-9.85,-9.849l-17.437,16.42l10.358,10.363Zm67.208,-6.175c-5,5.3 -8.375,8.858 -8.375,8.858c0,0 -15.833,9.338 -28.041,14.633l-0,-0.008l-16.309,-8.612c-3.066,-1.617 -6.808,-1.142 -9.375,1.175l-14.033,12.704c-0.712,0.658 -1.454,1.271 -2.233,1.866c-9.7,-21.27 -20.079,-34.533 -28.583,-42.712c0.229,-0.171 3.149,-2.429 7.316,-5.904c1.346,1.383 2.5,2.837 3.333,4.35c0.742,1.35 2.146,2.116 3.596,2.116c0.667,0 1.359,-0.162 1.984,-0.52c1.983,-1.088 2.696,-3.592 1.608,-5.58c-1.121,-2.029 -2.6,-3.937 -4.275,-5.695c1.617,-1.425 3.317,-2.946 5.021,-4.513c0.537,0.713 1.025,1.425 1.425,2.158c0.75,1.35 2.154,2.117 3.592,2.117c0.679,0 1.358,-0.162 1.983,-0.508c1.987,-1.1 2.708,-3.592 1.608,-5.579c-0.746,-1.35 -1.65,-2.642 -2.675,-3.871l0.013,-0.013c1.908,-1.92 3.762,-3.862 5.479,-5.783c0.3,0.367 0.583,0.733 0.842,1.108c0.8,1.159 2.083,1.771 3.391,1.771c0.796,0 1.604,-0.237 2.317,-0.721c1.867,-1.287 2.342,-3.841 1.046,-5.708c-0.442,-0.65 -0.925,-1.288 -1.442,-1.892c3.492,-1.4 7.658,-0.787 10.658,1.934c6.488,5.879 15.692,14.266 24.255,22.221c5.124,4.737 10,9.308 13.916,13.12c2.708,2.588 6.292,4.046 10.042,4.046l4.041,0c2.625,0 5.167,0.971 7.125,2.742l0.75,0.7Z" style="fill:#fff;fill-rule:nonzero;"/><path d="M957.014,1017.53l-0,24.638l-8,-0l-0,21.895c-0.458,12.767 -14.583,29.634 -31.458,27.809c-3.542,-0.388 -6.305,-1.738 -8.446,-3.638c-8.075,-7.108 -7.513,-21.895 -7.513,-21.895l-12.767,-0.451l0,-21.433l-7.716,0l-0,-26.925l75.9,0Z" style="fill:#ffb500;fill-rule:nonzero;"/><path d="M921.639,1166.1l-0,0.008c-2.583,1.126 -4.959,2.063 -7.05,2.7c-11.863,3.646 -10.488,11.859 -10.488,11.859l0,22.458l-16.187,0c-0,0 -59.279,18.688 -121.738,0l0,-33.292c0,0 26.884,19.93 76.967,13.942c7.746,-0.916 16.054,-2.458 24.904,-4.804c4.229,-1.121 8.179,-3.096 11.642,-5.738c0.779,-0.595 1.521,-1.208 2.233,-1.866l14.033,-12.704c2.567,-2.317 6.309,-2.792 9.375,-1.175l16.309,8.612Z" style="fill:#fff;fill-rule:nonzero;"/><path d="M909.11,1088.23l-11.184,11.559c-3,-2.721 -7.166,-3.334 -10.658,-1.934c-8.375,-9.916 -25.254,-15 -26.013,-15.225c-0.383,-0.116 -0.774,-0.171 -1.162,-0.171l1.196,-0.25c1.437,-2.654 3.304,-5.191 5.658,-6.754l-2.287,-31.004l24.17,0l0,21.433l12.767,0.451c0,-0 -0.562,14.787 7.513,21.895Z" style="fill:#ff6639;fill-rule:nonzero;"/><path d="M907.776,1131.86l-16.929,16.934l-10.358,-10.363l17.437,-16.42l9.85,9.849Z" style="fill:#00315a;fill-rule:nonzero;"/><path d="M858.076,1090.14c-1.629,-0.921 -2.471,-2.871 -1.921,-4.738c0.53,-1.791 2.167,-2.946 3.938,-2.946c0.388,0 0.779,0.055 1.162,0.171c0.759,0.225 17.638,5.309 26.013,15.225c0.517,0.604 1,1.242 1.442,1.892c1.296,1.867 0.821,4.421 -1.046,5.708c-0.713,0.484 -1.521,0.721 -2.317,0.721c-1.308,0 -2.591,-0.612 -3.391,-1.771c-0.259,-0.375 -0.542,-0.741 -0.842,-1.108c-5.513,-6.692 -17.729,-11.471 -22.183,-12.787l-0.855,-0.367Z" style="fill:#fff;fill-rule:nonzero;"/><path d="M878.297,1112.97c1.1,1.987 0.379,4.479 -1.608,5.579c-0.625,0.346 -1.304,0.508 -1.983,0.508c-1.438,0 -2.842,-0.767 -3.592,-2.117c-0.4,-0.733 -0.888,-1.445 -1.425,-2.158c-5.171,-6.733 -15.971,-12.212 -20.117,-13.908l-0.033,-0.013c-2.092,-0.85 -3.104,-3.246 -2.254,-5.341c0.854,-2.105 3.246,-3.117 5.341,-2.255c0.184,0.075 1.346,0.563 3.117,1.405c4.833,2.32 14.15,7.391 19.879,14.429c1.025,1.229 1.929,2.521 2.675,3.871Z" style="fill:#fff;fill-rule:nonzero;"/><path d="M881.114,1103.3c-1.717,1.921 -3.571,3.863 -5.479,5.783l-0.013,0.013c-5.729,-7.038 -15.046,-12.109 -19.879,-14.429l0.183,-0.4c0.496,-0.509 0.984,-1.005 1.438,-1.488c-0,0 0.225,-1.037 0.712,-2.633l0.855,0.367c4.454,1.316 16.67,6.095 22.183,12.787Z" style="fill:#2c42ce;fill-rule:nonzero;"/><path d="M851.106,1130.52c8.504,8.179 18.883,21.442 28.583,42.712c-3.463,2.642 -7.413,4.617 -11.642,5.738c-8.85,2.346 -17.158,3.888 -24.904,4.804c-8.192,-30.637 -31.375,-43.121 -31.375,-43.121c-0,0 10.042,-10.608 21.317,-22.479c-0,0 7.596,2.342 18.021,12.346Z" style="fill:#ff6639;fill-rule:nonzero;"/><path d="M868.943,1124.99c1.088,1.988 0.375,4.492 -1.608,5.58c-0.625,0.358 -1.317,0.52 -1.984,0.52c-1.45,0 -2.854,-0.766 -3.596,-2.116c-0.833,-1.513 -1.987,-2.967 -3.333,-4.35c-5.591,-5.75 -14.566,-10.238 -18.225,-11.729c-0.496,-0.205 -0.941,-0.496 -1.308,-0.842c-1.175,-1.121 -1.608,-2.892 -0.959,-4.5c0.851,-2.104 3.234,-3.108 5.338,-2.254c0.121,0.041 0.658,0.258 1.5,0.637c3.692,1.671 13.342,6.417 19.9,13.359c1.675,1.758 3.154,3.666 4.275,5.695Z" style="fill:#fff;fill-rule:nonzero;"/><path d="M869.689,1114.78c-1.704,1.567 -3.404,3.088 -5.021,4.513c-6.558,-6.942 -16.208,-11.688 -19.9,-13.359l0.021,-0.054c1.646,-1.716 3.25,-3.387 4.783,-4.996l0,-0.012c4.146,1.696 14.946,7.175 20.117,13.908Z" style="fill:#2c42ce;fill-rule:nonzero;"/><path d="M858.422,1124.62c-4.167,3.475 -7.087,5.733 -7.316,5.904c-10.425,-10.004 -18.021,-12.346 -18.021,-12.346c1.725,-1.812 3.487,-3.658 5.233,-5.504l0.571,-0.625c0.367,0.346 0.812,0.637 1.308,0.842c3.659,1.491 12.634,5.979 18.225,11.729Z" style="fill:#2c42ce;fill-rule:nonzero;"/><path d="M843.143,1183.78c-50.083,5.988 -76.967,-13.942 -76.967,-13.942c0,0 -1.366,-8.2 10.484,-11.849c11.854,-3.646 35.108,-17.33 35.108,-17.33c-0,0 23.183,12.484 31.375,43.121Z" style="fill:#fff;fill-rule:nonzero;"/><path d="M1066.6,167.82l-0.587,-0.342c-6.834,-12.791 -10.459,-27.296 -10.459,-41.933c0,-7.517 0.921,-14.954 2.754,-22.096l0.792,-0.463l0.459,0.78c-1.834,7.041 -2.751,14.366 -2.751,21.779c0,14.429 3.584,28.721 10.334,41.329l-0.25,0.867l-0.292,0.079Z" style="fill:#02012d;fill-rule:nonzero;"/><path d="M1144.56,214.557c-11.834,0 -23.251,-2.266 -34,-6.729c-1.38,-0.575 -2.751,-1.192 -4.25,-1.892c-17.042,-8.108 -31.334,-21.758 -40.296,-38.433l0.296,-0.871l0.833,0.267c8.833,16.433 22.916,29.888 39.708,37.879c1.458,0.688 2.829,1.3 4.209,1.863c10.583,4.4 21.875,6.633 33.5,6.633c4.291,-0 8.541,-0.304 12.624,-0.9c7.167,-1.042 14.209,-2.971 20.875,-5.733c1.376,-0.563 2.667,-1.15 3.917,-1.742c16.833,-7.95 31,-21.375 39.875,-37.808c6.125,-11.421 9.625,-23.8 10.292,-36.788l0.666,-0.604l0.626,0.671c-0.709,13.179 -4.209,25.737 -10.459,37.329c-9,16.671 -23.333,30.296 -40.458,38.358c-1.25,0.6 -2.583,1.196 -3.959,1.771c-6.791,2.8 -13.916,4.759 -21.166,5.813c-4.167,0.608 -8.5,0.916 -12.833,0.916Z" style="fill:#02012d;fill-rule:nonzero;"/><path d="M1179.81,148.741c-5.709,-0 -11.126,-1.875 -15.625,-5.425l-0.084,-0.9l0.875,-0.105c4.25,3.367 9.375,5.146 14.834,5.146c3.999,0 7.791,-0.954 11.333,-2.837c7.791,-4.175 12.625,-12.271 12.625,-21.125c-0,-10.942 -7.375,-20.484 -18,-23.196c-1.875,-0.496 -3.875,-0.746 -5.958,-0.746c-5.292,0 -10.334,1.692 -14.542,4.9l-0.917,-0.125l0.125,-0.896c4.459,-3.375 9.75,-5.162 15.334,-5.162c2.166,-0 4.291,0.266 6.291,0.791c11.167,2.855 18.958,12.905 18.958,24.434c0,9.329 -5.083,17.854 -13.333,22.254c-3.708,1.987 -7.708,2.992 -11.916,2.992Z" style="fill:#02012d;fill-rule:nonzero;"/><path d="M1179.93,137.337c-2.792,-0 -5.501,-0.842 -7.792,-2.438c-3.792,-2.567 -6.042,-6.833 -6.042,-11.404c0,-4.658 2.334,-8.975 6.25,-11.542c4.417,-2.95 10.625,-2.987 15.167,-0.025l0.167,0.892l-0.876,0.183c-4.125,-2.692 -9.75,-2.662 -13.749,0.017c-3.542,2.333 -5.667,6.246 -5.667,10.475c-0,4.146 2.042,8.016 5.458,10.35c4.208,2.9 10,2.879 14.209,-0.021l0.916,0.162l-0.167,0.892c-2.333,1.608 -5.041,2.459 -7.874,2.459Z" style="fill:#02012d;fill-rule:nonzero;"/><path d="M1172.43,135.078l-0.208,-0.033l-0.375,-0.821l0.209,-0.304c3.041,-2.696 4.75,-6.542 4.75,-10.575c-0,-3.913 -1.625,-7.679 -4.501,-10.342l-0.041,-0.908l0.917,-0.034c3.125,2.905 4.916,7.017 4.916,11.284c0,4.371 -1.875,8.541 -5.125,11.45l-0.542,0.283Z" style="fill:#02012d;fill-rule:nonzero;"/><path d="M1156.76,11.366m-20.5,21.408l100.875,100.875l21.25,-21.267c6.625,-6.604 10.25,-15.383 10.25,-24.725c-0,-9.333 -3.625,-18.104 -10.25,-24.7l-51.458,-51.462c-13.625,-13.617 -35.792,-13.617 -49.417,-0l-0.292,0.316l0,0.009l-20.958,20.954Zm100.875,102.425l-0.458,-0.188l-4.292,-4.275l-97.5,-97.508l-0.167,-0.454l0.167,-0.454l21.708,-21.725c14.167,-14.129 37.125,-14.121 51.25,-0.009l51.458,51.463c6.834,6.837 10.626,15.929 10.626,25.608c-0,9.684 -3.792,18.784 -10.626,25.634l-21.708,21.716l-0.458,0.192Z" style="fill:#02012d;fill-rule:nonzero;"/><path d="M1093.81,82.924l-0.626,-0.429l0.371,-0.817l17.463,-6.183c10.708,-3.804 22,-6.221 33.5,-7.188c3.625,-0.295 7.25,-0.446 10.833,-0.446l15.75,0l0.625,0.642l-0.625,0.642l-15.75,-0c-3.541,-0 -7.166,0.15 -10.708,0.441c-11.417,0.955 -22.583,3.351 -33.167,7.117l-17.458,6.184l-0.208,0.037Z" style="fill:#02012d;fill-rule:nonzero;"/><path d="M1060.14,104.249l-3.75,-0c-24.667,-0 -44.709,-20.067 -44.709,-44.733c0,-3.492 0.376,-6.942 1.209,-10.25c0.75,-3.28 1.875,-6.446 3.333,-9.405c8.834,-18.02 29.167,-27.504 49.459,-23.037l69.791,15.325l0.5,0.762l-0.75,0.492l-69.833,-15.325c-19.713,-4.329 -39.463,4.859 -48,22.35c-1.417,2.871 -2.542,5.942 -3.292,9.133c-0.75,3.213 -1.125,6.563 -1.125,9.955c0,23.958 19.459,43.45 43.417,43.45l3.75,-0c14.833,-0 29.458,-3.83 42.329,-11.075l41.796,-23.505l0.875,0.246l-0.25,0.875l-41.792,23.5c-13.083,7.354 -27.916,11.242 -42.958,11.242Z" style="fill:#02012d;fill-rule:nonzero;"/><path d="M1121.06,182.907l-0.625,-0.641l-0,-10.5c-0,-14.767 -12.042,-26.779 -26.796,-26.779c-6.371,-0 -12.542,2.27 -17.371,6.395c-4.792,4.079 -8,9.73 -9.042,15.904l-0.625,0.596l-0.629,-0.683c1.083,-6.596 4.463,-12.517 9.462,-16.792c5.042,-4.325 11.542,-6.704 18.205,-6.704c15.462,0 28.045,12.588 28.045,28.063l0,9.85c12.334,-0.342 22.251,-10.467 22.251,-22.867l-0,-41.737c-0,-2.821 -1.125,-5.484 -3.125,-7.488c-1.959,-1.983 -4.625,-3.075 -7.459,-3.075c-5.666,-0 -10.291,-4.629 -10.291,-10.321l-0,-15.429l0.625,-0.642l0.624,0.642l0,15.429c0,4.983 4.084,9.042 9.042,9.042c3.209,-0 6.167,1.221 8.375,3.446c2.25,2.246 3.5,5.229 3.5,8.396l0,41.737c0,13.321 -10.833,24.158 -24.166,24.158Z" style="fill:#02012d;fill-rule:nonzero;"/><path d="M1084.68,149.582l0,4.238c0,1.704 0.796,3.321 2.254,4.55c1.496,1.237 3.459,1.921 5.621,1.921c4.338,-0 7.834,-2.905 7.834,-6.471l-0,-4.238l-15.709,0Zm7.875,11.988c-2.454,-0 -4.75,-0.788 -6.454,-2.217c-1.75,-1.483 -2.708,-3.446 -2.708,-5.533l-0,-4.879l0.625,-0.642l17.041,-0l0.626,0.642l-0,4.879c-0,4.275 -4.084,7.75 -9.13,7.75Z" style="fill:#02012d;fill-rule:nonzero;"/><path d="M1157.31,213.636l-0.666,-0.637l-0,-108.163c-0,-7.366 6,-13.362 13.375,-13.362l8.333,-0c4.542,-0 8.209,3.679 8.209,8.204l-0.626,0.642l-0.666,-0.642c-0,-3.817 -3.084,-6.921 -6.917,-6.921l-8.333,0c-6.667,0 -12.083,5.421 -12.083,12.079l-0,108.163l-0.626,0.637Z" style="fill:#02012d;fill-rule:nonzero;"/><path d="M1222.39,168.036l-0.375,-0.12l-30.959,-22.209l-0.125,-0.895l0.876,-0.146l30.958,22.208l0.166,0.896l-0.541,0.266Z" style="fill:#02012d;fill-rule:nonzero;"/><path d="M1171.26,48.207c-2.458,0 -4.958,-0.937 -6.834,-2.816l-20.333,-20.355l-0,-0.908l0.917,0.004l20.333,20.35c3.25,3.254 8.583,3.259 11.834,0c1.583,-1.596 2.416,-3.695 2.416,-5.912c0,-2.192 -0.875,-4.338 -2.416,-5.892l-20.792,-20.762l-0,-0.909l0.916,0l20.75,20.763c1.834,1.796 2.834,4.271 2.834,6.8c-0,2.554 -1,4.975 -2.792,6.817c-1.875,1.879 -4.375,2.82 -6.833,2.82Z" style="fill:#02012d;fill-rule:nonzero;"/><path d="M1144.43,258.82c-21.209,-0 -38.5,-17.263 -38.5,-38.484l-0,-14.979l0.662,-0.666l0.629,0.612l0,15.033c0,20.513 16.708,37.2 37.209,37.2c9.916,0 19.25,-3.866 26.291,-10.895c7,-7.021 10.875,-16.363 10.875,-26.305l-0,-15.033l0.625,-0.642l0.667,0.642l-0,15.033c-0,10.284 -4,19.946 -11.25,27.213c-7.292,7.271 -16.917,11.271 -27.208,11.271Z" style="fill:#02012d;fill-rule:nonzero;"/><path d="M955.43,366.399l-0.666,-0.642l-0,-31.566c-0,-63.134 51.375,-114.496 114.5,-114.496l37.329,-0l0.629,0.641l-0.629,0.642l-37.329,0c-62.417,0 -113.208,50.788 -113.208,113.213l-0,31.566l-0.626,0.642Z" style="fill:#02012d;fill-rule:nonzero;"/><path d="M1322.14,520.453l-143.542,0l-0.625,-0.641l0.625,-0.642l143.542,-0c29.125,-0 52.791,-23.683 52.791,-52.796l0,-149.729c0,-52.754 -42.916,-95.667 -95.666,-95.667l-97.042,0l-0.625,-0.642l0.625,-0.641l97.042,-0c53.458,-0 96.958,43.491 96.958,96.95l0,149.729c0,29.817 -24.292,54.079 -54.083,54.079Z" style="fill:#02012d;fill-rule:nonzero;"/><path d="M773.247,573.774l263.054,0l0,-16.254l-263.054,-0l0,16.254Zm263.683,1.279l-264.32,0l-0.642,-0.637l-0,-17.538l0.642,-0.641l264.32,-0l0.626,0.641l-0,17.538l-0.626,0.637Z" style="fill:#02012d;fill-rule:nonzero;"/><path d="M1291.85,575.053l-254.917,0l-0.629,-0.637l0.629,-0.642l254.292,0l0,-16.254l-254.292,-0l-0.587,-0.388l-2.787,-6.466l-17.334,-40.613l-0.042,-0.1l-72.25,-169.196c-1.916,-4.504 -6.333,-7.412 -11.208,-7.412l-235.35,-0c-4.1,-0 -7.896,2.041 -10.158,5.458c-2.263,3.429 -2.659,7.734 -1.046,11.521l88.108,206.304l-0.337,0.842l-0.842,-0.338l-88.108,-206.308c-1.779,-4.183 -1.35,-8.942 1.158,-12.729c2.5,-3.779 6.692,-6.033 11.225,-6.033l235.35,-0c5.375,-0 10.25,3.216 12.375,8.191l72.209,169.096l0.083,0.1l19.954,46.788l254.504,-0l0.667,0.641l-0,17.538l-0.667,0.637Z" style="fill:#02012d;fill-rule:nonzero;"/><path d="M1016.89,510.287l-0.458,-0.188l-0,-0.908l46.125,-46.109c14.083,-14.116 32.875,-21.887 52.833,-21.887l194.125,-0l0.667,0.637l-0.667,0.642l-194.125,-0c-19.625,-0 -38.083,7.642 -51.963,21.517l-46.079,46.108l-0.458,0.188Z" style="fill:#02012d;fill-rule:nonzero;"/><path d="M1151.64,536.27c-3.917,-0 -7.75,-0.7 -11.333,-2.092c-4.292,-1.65 -8.25,-4.275 -11.417,-7.592c-1.125,-1.166 -2.208,-2.587 -3.292,-4.337l-2.5,-5.688l0.333,-0.845l0.834,0.329l2.458,5.612c1,1.588 2,2.938 3.084,4.042c3.041,3.179 6.833,5.7 10.958,7.283c6.875,2.654 14.75,2.675 21.75,-0.012c6.541,-2.529 12.083,-7.317 15.541,-13.471c2.5,-4.513 3.834,-9.629 3.834,-14.796c-0,-2.012 -0.209,-4.062 -0.625,-6.087l0.5,-0.754l0.75,0.495c0.458,2.113 0.666,4.246 0.666,6.346c0,5.388 -1.375,10.717 -4,15.421c-3.625,6.417 -9.375,11.404 -16.208,14.042c-3.625,1.4 -7.458,2.104 -11.333,2.104Z" style="fill:#02012d;fill-rule:nonzero;"/><path d="M1080.14,518.499l-0.671,-0.642l-0,-5.612c-0,-9.542 3.879,-18.879 10.629,-25.609l8.625,-8.641l0.917,-0l-0,0.904l-8.629,8.646c-6.496,6.491 -10.246,15.496 -10.246,24.7l-0,5.612l-0.625,0.642Z" style="fill:#02012d;fill-rule:nonzero;"/><path d="M1099.88,547.687c-5.413,-0 -10.538,-2.121 -14.413,-5.967c-3.879,-3.859 -6.004,-8.983 -6.004,-14.442l0.671,-0.641l0.625,0.641c-0,5.117 2,9.921 5.579,13.533c3.625,3.609 8.462,5.596 13.542,5.596c8.25,0 15.504,-5.237 18.125,-13.029c0.67,-1.942 1.004,-3.996 1.004,-6.1l0,-10.975l0.625,-0.642l14.292,0l0.666,0.642l-0.666,0.642l-13.667,-0l-0,10.333c-0,2.246 -0.333,4.438 -1.042,6.509c-2.791,8.312 -10.546,13.9 -19.337,13.9Z" style="fill:#02012d;fill-rule:nonzero;"/><path d="M1059.22,551.011c-6.704,0 -13.121,-3.191 -17.167,-8.541c-2.87,-3.763 -4.37,-8.254 -4.37,-12.992l-0,-10.316c-0,-10.371 4.041,-20.146 11.416,-27.526l13.625,-13.641l0.917,-0l-0,0.904l-13.625,13.642c-7.125,7.137 -11.042,16.591 -11.042,26.621l0,10.316c0,4.454 1.417,8.679 4.079,12.217c3.838,5.033 9.875,8.033 16.167,8.033c5.421,0 10.504,-2.1 14.338,-5.917c3.829,-3.833 5.912,-8.92 5.912,-14.333l-0,-11.621l0.671,-0.641l0.625,0.641l-0,11.621c-0,5.754 -2.254,11.167 -6.334,15.242c-4.041,4.058 -9.462,6.291 -15.212,6.291Z" style="fill:#02012d;fill-rule:nonzero;"/><path d="M1034.26,551.011l-0.455,-0.187l0,-0.908l8.292,-8.288l0.913,0.004l-0,0.904l-8.292,8.288l-0.458,0.187Z" style="fill:#02012d;fill-rule:nonzero;"/><path d="M1120.35,479.091l-62.333,-0l-0.625,-0.642l0.625,-0.642l62.333,0l0.667,0.642l-0.667,0.642Z" style="fill:#02012d;fill-rule:nonzero;"/><path d="M1006.26,485.486l-0.167,-0.025l-0.417,-0.795c2.959,-9.892 12.251,-16.796 22.584,-16.796l29.75,-0l0.621,0.642l-0.621,0.641l-29.75,0c-9.792,0 -18.542,6.529 -21.375,15.879l-0.625,0.454Z" style="fill:#02012d;fill-rule:nonzero;"/><path d="M1119.64,516.945l-0.375,-0.134l-0.125,-0.9l8.083,-10.541l0.917,-0.121l0.125,0.9l-8.125,10.546l-0.5,0.25Z" style="fill:#02012d;fill-rule:nonzero;"/><path d="M1289.85,442.474l-0.666,-0.642l-0,-109.483l0.666,-0.642l0.625,0.642l-0,109.483l-0.625,0.642Z" style="fill:#02012d;fill-rule:nonzero;"/><path d="M1375.56,340.824l-85.708,-0l-0.666,-0.642l0.666,-0.641l85.708,-0l0.667,0.641l-0.667,0.642Z" style="fill:#02012d;fill-rule:nonzero;"/><path d="M1375.56,356.741l-85.708,-0l-0.666,-0.642l0.666,-0.642l85.708,0l0.667,0.642l-0.667,0.642Z" style="fill:#02012d;fill-rule:nonzero;"/><path d="M1042.72,469.153l-0.625,-0.641l0,-133.467l0.625,-0.642l0.667,0.642l-0,133.467l-0.667,0.641Z" style="fill:#02012d;fill-rule:nonzero;"/><path d="M1042.72,358.62l-87.292,-0l-0.666,-0.646l0.666,-0.638l87.292,0l0.667,0.638l-0.667,0.646Z" style="fill:#02012d;fill-rule:nonzero;"/><path d="M1042.72,342.711l-87.292,0l-0.666,-0.641l0.666,-0.642l87.292,0l0.667,0.642l-0.667,0.641Z" style="fill:#02012d;fill-rule:nonzero;"/><path d="M1084.47,135.362l-0.125,-0.013c-4.083,-0.746 -7.083,-4.321 -7.083,-8.496c-0,-4.762 3.871,-8.642 8.625,-8.642c2.875,0 5.542,1.421 7.162,3.8l-0.162,0.892l-0.879,-0.171c-1.371,-2.025 -3.667,-3.237 -6.121,-3.237c-4.042,-0 -7.334,3.304 -7.334,7.358c0,3.554 2.538,6.6 6.042,7.233l0.5,0.746l-0.625,0.53Z" style="fill:#02012d;fill-rule:nonzero;"/><path d="M1089.56,134.632l-0.5,-0.241l0.126,-0.938l0.166,-0.112c1.079,-0.571 1.959,-1.38 2.663,-2.4l0.879,-0.175l0.162,0.891c-0.787,1.184 -1.829,2.125 -3.083,2.796l-0.042,0.038l-0.371,0.141Z" style="fill:#02012d;fill-rule:nonzero;"/><path d="M1093.09,122.728c-0.829,1.238 -1.246,2.663 -1.246,4.125c0,1.467 0.417,2.883 1.204,4.088c0.713,1.008 1.625,1.841 2.713,2.4c1.041,0.566 2.166,0.854 3.417,0.854c4.041,-0 7.333,-3.292 7.333,-7.342c0,-4.054 -3.292,-7.358 -7.333,-7.358c-2.463,-0 -4.709,1.208 -6.088,3.233Zm6.088,12.75c-1.421,0 -2.834,-0.346 -4.046,-1.004c-1.246,-0.654 -2.329,-1.629 -3.125,-2.817c-0.955,-1.416 -1.455,-3.079 -1.455,-4.804c0,-1.721 0.5,-3.392 1.455,-4.833l-0,-0.009c1.625,-2.379 4.295,-3.8 7.171,-3.8c4.75,0 8.624,3.88 8.624,8.642c0,4.754 -3.874,8.625 -8.624,8.625Z" style="fill:#02012d;fill-rule:nonzero;"/><path d="M1095.93,142.549l-8.709,-0c-2.583,-0 -4.629,-2.046 -4.629,-4.658c-0,-1.23 0.504,-2.392 1.379,-3.267l0.288,-0.267c0.796,-0.687 1.879,-1.087 2.962,-1.087l8.209,-0l0.666,0.637l-0.666,0.642l-8.209,0c-0.792,0 -1.583,0.292 -2.166,0.817l-0.584,-0.371l0.375,0.562c-0.629,0.604 -0.958,1.442 -0.958,2.334c-0,1.891 1.458,3.375 3.333,3.375l8.709,-0l0.625,0.641l-0.625,0.642Z" style="fill:#02012d;fill-rule:nonzero;"/><path d="M1097.6,122.291c-1.879,-0 -3.375,1.504 -3.375,3.354c0,1.846 1.496,3.35 3.375,3.35c1.875,-0 3.329,-1.475 3.329,-3.35c0,-1.85 -1.496,-3.354 -3.329,-3.354Zm0,7.987c-2.583,0 -4.666,-2.079 -4.666,-4.633c-0,-2.559 2.083,-4.638 4.666,-4.638c2.542,0 4.625,2.079 4.625,4.638c0,2.554 -2.083,4.633 -4.625,4.633Z" style="fill:#02012d;fill-rule:nonzero;"/><path d="M1084.39,121.72c-1.875,-0 -3.375,1.496 -3.375,3.329c0,1.858 1.5,3.375 3.375,3.375c1.833,-0 3.333,-1.517 3.333,-3.375c0,-1.833 -1.5,-3.329 -3.333,-3.329Zm-0,7.987c-2.584,0 -4.667,-2.091 -4.667,-4.658c0,-2.542 2.083,-4.613 4.667,-4.613c2.541,0 4.625,2.071 4.625,4.613c-0,2.567 -2.084,4.658 -4.625,4.658Z" style="fill:#02012d;fill-rule:nonzero;"/><path d="M1052.1,530.024c-2.296,0 -4.167,1.875 -4.167,4.179l0,2.829c0,2.309 1.871,4.184 4.167,4.184l11.329,-0c2.296,-0 4.167,-1.875 4.167,-4.184l-0,-2.829c-0,-2.304 -1.871,-4.179 -4.167,-4.179l-11.329,0Zm11.329,12.475l-11.329,-0c-3,-0 -5.458,-2.454 -5.458,-5.467l0,-2.829c0,-3.012 2.458,-5.462 5.458,-5.462l11.329,-0c3.005,-0 5.421,2.45 5.421,5.462l0,2.829c0,3.013 -2.416,5.467 -5.421,5.467Z" style="fill:#02012d;fill-rule:nonzero;"/><path d="M1095.22,534.224c-1.708,0 -3.125,1.408 -3.125,3.142l0,2.225c0,1.729 1.417,3.137 3.125,3.137l5.333,0c1.751,0 3.125,-1.408 3.125,-3.137l0,-2.225c0,-1.734 -1.374,-3.142 -3.125,-3.142l-5.333,0Zm5.333,9.783l-5.333,0c-2.416,0 -4.416,-1.979 -4.416,-4.416l-0,-2.225c-0,-2.442 2,-4.425 4.416,-4.425l5.333,-0c2.455,-0 4.417,1.983 4.417,4.425l0,2.225c0,2.437 -1.962,4.416 -4.417,4.416Z" style="fill:#02012d;fill-rule:nonzero;"/><path d="M1095.93,153.186l-11.917,0l-0.625,-0.641l0.625,-0.642l11.291,0l0,-2.962l0.626,-0.642l0.625,0.642l-0,3.604l-0.625,0.641Z" style="fill:#02012d;fill-rule:nonzero;"/><path d="M1080.76,1178.41l-0,23.005l0.042,1.037c0.5,3.858 3.833,6.758 7.749,6.758l39.751,0c7.75,0 14.083,-6.316 14.083,-14.079l-0,-12.179c-0,-15.213 -8.875,-30.962 -11.209,-34.796c-3.958,6.283 -11.166,12.342 -21.333,18.021c-12.791,7.137 -26.458,11.425 -29.083,12.233Zm47.542,32.084l-39.751,-0c-4.541,-0 -8.416,-3.38 -9.004,-7.863c-0.083,-0.387 -0.083,-0.796 -0.083,-1.216l-0,-23.484l0.463,-0.616c0.12,-0.042 15.245,-4.421 29.287,-12.255c10.462,-5.837 17.671,-12.045 21.421,-18.454l0.541,-0.317l0.542,0.292c0.125,0.184 11.958,18.6 11.958,36.371l0,12.179c0,8.471 -6.916,15.363 -15.374,15.363Z" style="fill:#02012d;fill-rule:nonzero;"/><path d="M904.743,1213.47c61.396,18.192 120.313,0.05 120.896,-0.133l0.204,-0.034l27.667,0c4.504,0 8.171,-3.666 8.171,-8.175l-0,-26.362l-18.709,-9.888c-2.833,-1.491 -6.291,-1.054 -8.667,1.084l-14.041,12.712c-0.792,0.717 -1.542,1.334 -2.254,1.892c-3.621,2.746 -7.58,4.712 -11.871,5.85c-8.459,2.233 -16.875,3.854 -25,4.817c-44.417,5.308 -70.996,-9.888 -76.396,-13.363l0,31.6Zm58.479,9.371c-18.083,-0 -38.542,-2.071 -59.304,-8.279l-0.458,-0.617l-0,-33.279l0.35,-0.571l0.671,0.054c0.27,0.196 27.283,19.7 76.491,13.813c8.083,-0.959 16.458,-2.571 24.834,-4.788c4.124,-1.091 7.958,-2.983 11.416,-5.629c0.709,-0.538 1.413,-1.133 2.209,-1.825l14,-12.708c2.791,-2.496 6.833,-3.005 10.12,-1.271l19.046,10.071l0.375,0.566l0,26.75c0,5.217 -4.254,9.459 -9.462,9.459l-27.584,-0c-1.787,0.55 -27.787,8.254 -62.704,8.254Z" style="fill:#02012d;fill-rule:nonzero;"/><path d="M1080.09,1203.19l-17.792,-0l-0.62,-0.642l0.62,-0.642l17.792,0l0.671,0.642l-0.671,0.642Z" style="fill:#02012d;fill-rule:nonzero;"/><path d="M904.101,1181.31l-0.633,-0.537c-0.017,-0.087 -1.321,-8.808 10.929,-12.575c1.909,-0.592 4.283,-1.492 6.992,-2.675c11.583,-5.033 26.708,-13.838 27.917,-14.55l11.458,-12.104c2.958,-3.138 6.292,-6.663 9.791,-10.3c1.584,-1.704 3.251,-3.429 4.875,-5.159l0.334,-0.354l0.917,-0.02l0.041,0.904l-0.375,0.354c-1.625,1.725 -3.25,3.45 -4.875,5.158c-3.458,3.642 -6.833,7.163 -9.792,10.3l-11.5,12.167l-0.166,0.112c-0.167,0.092 -16.042,9.413 -28.125,14.667c-2.75,1.204 -5.167,2.121 -7.113,2.725c-11.141,3.425 -10.096,10.829 -10.041,11.142l-0.53,0.733l-0.104,0.012Z" style="fill:#02012d;fill-rule:nonzero;"/><path d="M982.722,1117.35l-0.458,-0.179l-0,-0.904c1.625,-1.729 3.25,-3.4 4.75,-5l0.916,-0.017l0.042,0.908c-1.542,1.592 -3.125,3.267 -4.791,4.992l-0.459,0.2Z" style="fill:#02012d;fill-rule:nonzero;"/><path d="M993.847,1105.74l-0.417,-0.179l-0.041,-0.909l1.333,-1.362c0.083,-0.367 0.292,-1.275 0.667,-2.505l0.792,-0.433l0.416,0.796c-0.458,1.558 -0.666,2.583 -0.666,2.596l-0.167,0.312l-1.459,1.488l-0.458,0.196Z" style="fill:#02012d;fill-rule:nonzero;"/><path d="M1057.97,1103.47c-0.879,-0 -1.708,-0.042 -2.541,-0.134c-3.463,-0.366 -6.417,-1.637 -8.834,-3.783c-7.333,-6.463 -7.754,-18.783 -7.712,-21.771l-12.163,-0.429l-0.625,-0.642l0,-20.787l-22.833,-0l2.25,30.312l-0.292,0.584c-2,1.32 -3.833,3.52 -5.458,6.533l-0.875,0.262l-0.25,-0.87c1.667,-3.046 3.5,-5.325 5.583,-6.78l-2.291,-30.637l0.208,-0.483l0.458,-0.205l24.167,0l0.621,0.642l-0,20.813l12.17,0.429l0.459,0.204l0.167,0.463c-0,0.145 -0.459,14.574 7.249,21.399c2.251,1.967 4.955,3.134 8.121,3.471c6.834,0.738 13.88,-1.696 19.834,-6.854c6.379,-5.525 10.671,-13.512 10.916,-20.342l0,-21.862l0.629,-0.642l18.709,0l0.541,0.279l0.042,0.596l-7.625,19.729l11.417,15.409l-0.125,0.896l-0.875,-0.134l-11.625,-15.687l-0.084,-0.613l7.375,-19.191l-17.083,-0l0,21.246c-0.254,7.187 -4.708,15.537 -11.375,21.287c-5.458,4.758 -11.875,7.292 -18.25,7.292Z" style="fill:#02012d;fill-rule:nonzero;"/><path d="M1131.18,1147.57l-0.625,-0.642l0,-4.842c0,-15.412 -5.083,-30.716 -14.249,-43.096l-7.292,-9.841l0.125,-0.896l0.875,0.129l7.333,9.842c9.334,12.6 14.458,28.179 14.458,43.862l0,4.842l-0.625,0.642Z" style="fill:#02012d;fill-rule:nonzero;"/><path d="M981.056,1195.25l-0.626,-0.479c-8,-30.021 -30.791,-42.6 -31.041,-42.721l-0.25,-0.867l0.875,-0.262c0.208,0.125 23.5,12.966 31.666,43.52l-0.458,0.784l-0.166,0.025Z" style="fill:#02012d;fill-rule:nonzero;"/><path d="M1017.59,1184.7l-0.583,-0.375c-8.121,-17.908 -17.704,-32.213 -28.455,-42.504c-10.166,-9.759 -17.666,-12.171 -17.75,-12.196l-0.416,-0.8l0.792,-0.425c0.333,0.096 7.875,2.504 18.291,12.496c10.834,10.404 20.5,24.837 28.708,42.9l-0.291,0.846l-0.296,0.058Z" style="fill:#02012d;fill-rule:nonzero;"/><path d="M1109.51,1166.26l-0.417,-0.166l-14.292,-12.871c-1.874,-1.663 -4.25,-2.575 -6.708,-2.575l-4.041,-0c-3.917,-0 -7.63,-1.504 -10.459,-4.229c-3.583,-3.463 -8.25,-7.875 -13.921,-13.113c-6.87,-6.362 -15.041,-13.837 -24.246,-22.217c-2.708,-2.45 -6.624,-3.154 -10,-1.8l-0.833,-0.354l0.375,-0.833c3.792,-1.533 8.246,-0.738 11.288,2.042c9.254,8.379 17.42,15.854 24.296,22.22c5.666,5.246 10.333,9.667 13.916,13.134c2.583,2.491 6,3.866 9.584,3.866l4.041,0c2.792,0 5.454,1.034 7.579,2.905l14.254,12.875l0.084,0.904l-0.5,0.212Z" style="fill:#02012d;fill-rule:nonzero;"/><path d="M1013.56,1120.55l-0.458,-0.188l0,-0.908c2.084,-2.075 3.871,-3.958 5.454,-5.754l0.921,-0.054l0.042,0.908c-1.625,1.812 -3.417,3.712 -5.5,5.808l-0.459,0.188Z" style="fill:#02012d;fill-rule:nonzero;"/><path d="M1002.6,1130.75l-0.5,-0.217l0.084,-0.904c1.625,-1.421 3.291,-2.929 5,-4.5l0.916,0.034l-0.042,0.908c-1.708,1.579 -3.416,3.096 -5.041,4.521l-0.417,0.158Z" style="fill:#02012d;fill-rule:nonzero;"/><path d="M989.014,1142l-0.5,-0.25l0.125,-0.9c-0,-0.021 3,-2.333 7.292,-5.896l0.916,0.083l-0.083,0.9c-4.292,3.584 -7.333,5.909 -7.375,5.93l-0.375,0.133Z" style="fill:#02012d;fill-rule:nonzero;"/><path d="M1060.1,1133.47l-0.625,-0.525l0.5,-0.746c0.417,-0.071 38.75,-7.55 48.917,-43.6l0.625,-0.487l0.625,0.633l0,0.187c-10.375,36.842 -49.5,44.455 -49.921,44.53l-0.121,0.008Z" style="fill:#02012d;fill-rule:nonzero;"/><path d="M1035.85,1111.25l-0.458,-0.179l-0,-0.904l11.167,-11.55l0.916,0.891l-11.171,11.546l-0.454,0.196Z" style="fill:#02012d;fill-rule:nonzero;"/><path d="M979.68,1116.45c-1.375,0 -2.666,0.817 -3.208,2.163c-0.541,1.325 -0.25,2.812 0.792,3.791c0.333,0.317 0.708,0.554 1.083,0.709c3.958,1.608 12.875,6.158 18.458,11.883c1.501,1.521 2.625,3.029 3.459,4.483c0.875,1.617 3.041,2.25 4.708,1.354c1.667,-0.925 2.25,-3.037 1.334,-4.704c-1.042,-1.862 -2.417,-3.741 -4.167,-5.575l-0,-0.004c-6.458,-6.821 -15.917,-11.504 -19.708,-13.204c-0.584,-0.271 -1.042,-0.458 -1.292,-0.558l-0.209,-0.088c-0.416,-0.171 -0.833,-0.25 -1.25,-0.25Zm23.584,26.096c-1.709,-0 -3.292,-0.938 -4.125,-2.446c-0.75,-1.354 -1.875,-2.775 -3.25,-4.212c-5.417,-5.571 -14.167,-10.013 -18,-11.584c-0.542,-0.212 -1.084,-0.541 -1.5,-0.975c-1.417,-1.341 -1.875,-3.383 -1.125,-5.2c1,-2.421 3.75,-3.591 6.166,-2.608l0.209,0.083c0.25,0.104 0.708,0.296 1.333,0.575c3.834,1.725 13.459,6.5 20.083,13.492c1.834,1.917 3.292,3.879 4.376,5.837c1.25,2.284 0.416,5.18 -1.834,6.45c-0.708,0.388 -1.541,0.588 -2.333,0.588Z" style="fill:#02012d;fill-rule:nonzero;"/><path d="M987.764,1111.12c3.833,1.566 15,7.137 20.333,14.095c0.584,0.692 1.084,1.446 1.5,2.238c0.875,1.617 3.083,2.254 4.708,1.358c1.667,-0.92 2.292,-3.037 1.376,-4.708c-0.709,-1.238 -1.584,-2.513 -2.626,-3.788c-5.583,-6.841 -14.708,-11.866 -19.666,-14.254c-1.709,-0.821 -2.834,-1.287 -3.084,-1.375c-0.708,-0.296 -1.541,-0.337 -2.291,-0.112c-1,0.312 -1.792,1.046 -2.208,2.012c-0.709,1.767 0.124,3.792 1.916,4.517l0.042,0.017Zm24.875,19.4c-1.75,-0 -3.334,-0.938 -4.167,-2.446c-0.417,-0.729 -0.875,-1.429 -1.375,-2.071c-5.166,-6.742 -16.083,-12.175 -19.833,-13.7l-0.042,-0.017c-2.417,-1 -3.583,-3.771 -2.583,-6.183c0.541,-1.321 1.625,-2.325 3,-2.758c1.042,-0.309 2.166,-0.259 3.166,0.15c0.209,0.096 1.375,0.575 3.167,1.408c5.042,2.437 14.333,7.567 20.083,14.6c1.084,1.333 2,2.675 2.709,3.979c1.287,2.292 0.458,5.183 -1.833,6.45c-0.709,0.388 -1.5,0.588 -2.292,0.588Z" style="fill:#02012d;fill-rule:nonzero;"/><path d="M998.014,1093.94c-1.5,0 -2.875,1.017 -3.333,2.475c-0.459,1.534 0.25,3.213 1.624,3.996l0.709,0.313c4.375,1.291 16.875,6.137 22.5,12.996c0.333,0.375 0.621,0.758 0.917,1.154c1,1.516 3.329,1.921 4.791,0.887c0.75,-0.525 1.292,-1.312 1.459,-2.22c0.166,-0.909 -0.042,-1.83 -0.584,-2.592c-0.416,-0.638 -0.875,-1.254 -1.375,-1.834l0,-0.004c-8.291,-9.816 -25,-14.816 -25.708,-15.025l-1,-0.146Zm25.246,23.709c-1.584,-0 -3.038,-0.767 -3.913,-2.05l-0.796,-1.059c-5.454,-6.612 -17.662,-11.329 -21.87,-12.587l-1,-0.429c-1.917,-1.071 -2.834,-3.375 -2.209,-5.475c0.584,-1.996 2.459,-3.392 4.542,-3.392c0.458,0 0.916,0.067 1.333,0.2c0.75,0.213 17.792,5.321 26.334,15.421c0.541,0.617 1.041,1.271 1.5,1.946c0.708,1.046 1,2.308 0.745,3.554c-0.245,1.246 -0.958,2.325 -2,3.033c-0.745,0.546 -1.666,0.838 -2.666,0.838Z" style="fill:#02012d;fill-rule:nonzero;"/><path d="M1080.09,1184.7l-17.792,-0l-0.62,-0.642l0.62,-0.641l17.792,-0l0.671,0.641l-0.671,0.642Z" style="fill:#02012d;fill-rule:nonzero;"/><path d="M1019.35,1149.27l9.417,9.441l16.041,-16.025l-8.958,-8.958l-16.5,15.542Zm9.417,10.987l-0.417,-0.187l-10.375,-10.359l-0.208,-0.462l0.208,-0.458l17.458,-16.425l0.871,0.012l9.875,9.854l0.171,0.454l-0.171,0.455l-16.954,16.929l-0.458,0.187Z" style="fill:#02012d;fill-rule:nonzero;"/><path d="M825.314,1212.02c-18.088,-0 -38.571,-2.071 -59.321,-8.279l-0.454,-0.613l-0,-33.292l0.35,-0.575l0.671,0.059c0.266,0.2 27.291,19.712 76.504,13.821c8.096,-0.959 16.442,-2.567 24.817,-4.784c4.112,-1.091 7.949,-2.987 11.416,-5.633c0.821,-0.625 1.538,-1.221 2.192,-1.825l14.033,-12.708c2.758,-2.492 6.825,-3.005 10.109,-1.267l16.3,8.608l0.291,0.867l-0.875,0.271l-16.317,-8.613c-2.812,-1.487 -6.291,-1.046 -8.65,1.084l-14.024,12.704c-0.68,0.625 -1.426,1.25 -2.276,1.9c-3.604,2.75 -7.595,4.717 -11.87,5.85c-8.434,2.233 -16.842,3.854 -24.996,4.821c-44.384,5.308 -70.996,-9.9 -76.396,-13.375l0,31.608c61.375,18.187 120.308,0.05 120.904,-0.133l0.192,-0.03l15.604,0l0.638,0.642l-0.638,0.638l-15.508,-0c-1.809,0.554 -27.809,8.254 -62.696,8.254Z" style="fill:#02012d;fill-rule:nonzero;"/><path d="M766.176,1170.47l-0.629,-0.533c-0.017,-0.088 -1.325,-8.796 10.921,-12.567c11.317,-3.479 33.408,-16.35 34.9,-17.225c0.863,-0.912 10.492,-11.088 21.25,-22.413l0.683,-0.716c1.509,-1.584 3.034,-3.184 4.55,-4.784l0.905,-0.025l0.029,0.905c-1.521,1.604 -3.05,3.204 -4.555,4.787l-0.683,0.717c-11.275,11.871 -21.308,22.479 -21.308,22.479l-0.142,0.113c-0.233,0.133 -23.454,13.762 -35.25,17.387c-11.133,3.429 -10.083,10.821 -10.037,11.133l-0.53,0.734l-0.104,0.008Z" style="fill:#02012d;fill-rule:nonzero;"/><path d="M844.793,1106.52l-0.442,-0.179l-0.021,-0.904l4.775,-5.001l0.909,-0.02l0.021,0.908l-4.775,4.996l-0.467,0.2Z" style="fill:#02012d;fill-rule:nonzero;"/><path d="M855.947,1094.84l-0.425,-0.163l-0.054,-0.858c0.504,-0.513 0.917,-0.942 1.308,-1.354c0.088,-0.363 0.304,-1.259 0.68,-2.492l0.62,-0.479l0.642,0.637l-0,0.013l-0.029,0.187c-0.471,1.546 -0.696,2.571 -0.7,2.579l-0.159,0.3c-0.425,0.463 -0.887,0.934 -1.354,1.413l-0.529,0.217Z" style="fill:#02012d;fill-rule:nonzero;"/><path d="M987.68,1103.93l-0.583,-0.396c-2.25,-5.45 -5.208,-10.621 -8.708,-15.379l-18.958,-25.546l-0.042,-0.612l7.375,-19.188l-17.125,0l-0,21.254c-0.25,7.192 -4.708,15.542 -11.334,21.292c-6.208,5.388 -13.625,7.921 -20.833,7.154c-3.408,-0.375 -6.371,-1.654 -8.791,-3.791c-7.334,-6.463 -7.746,-18.775 -7.734,-21.763l-12.137,-0.425l-0.621,-0.642l-0,-20.791l-22.842,-0l2.238,30.316l-0.284,0.58c-1.987,1.321 -3.816,3.516 -5.446,6.525l-0.87,0.258l-0.259,-0.867c1.646,-3.041 3.513,-5.321 5.55,-6.77l-2.258,-30.638l0.167,-0.479l0.475,-0.209l24.17,0l0.642,0.642l0,20.813l12.146,0.429l0.446,0.208l0.171,0.458c-0.005,0.146 -0.45,14.567 7.295,21.392c2.221,1.963 4.946,3.133 8.109,3.479c6.833,0.738 13.875,-1.691 19.833,-6.85c6.375,-5.525 10.667,-13.512 10.917,-20.346l-0,-21.87l0.625,-0.642l18.708,0l0.542,0.279l0.042,0.592l-7.626,19.733l18.709,25.263c3.625,4.841 6.583,10.108 8.875,15.65l-0.334,0.837l-0.25,0.05Z" style="fill:#02012d;fill-rule:nonzero;"/><path d="M957.014,1042.77l-0.625,-0.642l-0,-24.571l0.625,-0.642l0.667,0.642l-0,24.571l-0.667,0.642Z" style="fill:#02012d;fill-rule:nonzero;"/><path d="M843.143,1184.42l-0.621,-0.475c-8.021,-29.996 -30.825,-42.6 -31.054,-42.725l-0.258,-0.867l0.866,-0.262c0.23,0.125 23.517,12.97 31.684,43.52l-0.454,0.788l-0.163,0.021Z" style="fill:#02012d;fill-rule:nonzero;"/><path d="M879.689,1173.88l-0.579,-0.375c-8.175,-17.917 -17.742,-32.221 -28.45,-42.517c-10.167,-9.758 -17.692,-12.17 -17.767,-12.195l-0.421,-0.805l0.804,-0.42c0.313,0.095 7.859,2.504 18.271,12.495c10.825,10.409 20.488,24.846 28.725,42.909l-0.316,0.846l-0.267,0.062Z" style="fill:#02012d;fill-rule:nonzero;"/><path d="M958.014,1143.25l-0.417,-0.204l-0.708,-0.654c-1.833,-1.663 -4.25,-2.575 -6.709,-2.575l-4.041,-0c-3.917,-0 -7.625,-1.5 -10.459,-4.225c-3.499,-3.371 -8.041,-7.663 -13.916,-13.117c-6.767,-6.266 -14.925,-13.742 -24.267,-22.212c-2.704,-2.455 -6.629,-3.159 -9.996,-1.813l-0.829,-0.354l0.354,-0.833c3.821,-1.534 8.267,-0.73 11.334,2.05c9.346,8.475 17.504,15.954 24.279,22.225c5.875,5.458 10.416,9.754 13.917,13.129c2.583,2.496 6,3.867 9.583,3.867l4.041,-0c2.792,-0 5.5,1.033 7.542,2.904l0.792,0.704l-0.042,0.937l-0.458,0.171Z" style="fill:#02012d;fill-rule:nonzero;"/><path d="M875.635,1109.72l-0.455,-0.188l-0.004,-0.908c2.029,-2.041 3.867,-3.975 5.463,-5.758l0.904,-0.05l0.046,0.904c-1.604,1.8 -3.459,3.754 -5.5,5.808l-0.454,0.192Z" style="fill:#02012d;fill-rule:nonzero;"/><path d="M864.672,1119.93l-0.487,-0.216l0.058,-0.905c1.617,-1.425 3.308,-2.945 5.008,-4.504l0.909,0.038l-0.042,0.908c-1.704,1.567 -3.404,3.092 -5.025,4.517l-0.421,0.162Z" style="fill:#02012d;fill-rule:nonzero;"/><path d="M851.097,1131.17l-0.496,-0.234l0.075,-0.887l0.009,-0.009c0.058,-0.041 3.004,-2.304 7.325,-5.908l0.904,0.083l-0.083,0.9c-4.346,3.625 -7.309,5.901 -7.334,5.921l-0.4,0.134Z" style="fill:#02012d;fill-rule:nonzero;"/><path d="M922.181,1122.65l-0.626,-0.521l0.5,-0.75c0.417,-0.071 38.792,-7.562 48.917,-43.625l0.792,-0.441l0.458,0.791c-10.375,36.842 -49.542,44.463 -49.917,44.538l-0.124,0.008Z" style="fill:#02012d;fill-rule:nonzero;"/><path d="M897.926,1100.43l-0.441,-0.183l-0.017,-0.904l11.175,-11.559l0.908,-0.012l0.017,0.904l-11.183,11.558l-0.459,0.196Z" style="fill:#02012d;fill-rule:nonzero;"/><path d="M841.714,1105.63c-0.454,0 -0.909,0.092 -1.334,0.271c-0.849,0.359 -1.512,1.029 -1.858,1.888c-0.533,1.325 -0.212,2.816 0.809,3.795c0.32,0.3 0.695,0.542 1.108,0.713c3.95,1.608 12.883,6.158 18.441,11.875c1.475,1.508 2.63,3.017 3.438,4.487c0.604,1.1 1.767,1.784 3.033,1.784c0.588,-0 1.167,-0.15 1.663,-0.434c1.683,-0.925 2.287,-3.033 1.362,-4.716c-1.025,-1.854 -2.429,-3.729 -4.171,-5.567l-0.004,0c-6.4,-6.766 -15.908,-11.496 -19.696,-13.212c-0.812,-0.367 -1.337,-0.575 -1.458,-0.621c-0.433,-0.175 -0.887,-0.263 -1.333,-0.263Zm23.637,26.092c-1.729,-0 -3.325,-0.938 -4.158,-2.446c-0.754,-1.367 -1.842,-2.783 -3.233,-4.208c-5.409,-5.567 -14.142,-10.013 -18.009,-11.584c-0.562,-0.233 -1.066,-0.562 -1.5,-0.97c-1.412,-1.346 -1.85,-3.388 -1.116,-5.205c0.475,-1.179 1.379,-2.095 2.545,-2.591c1.167,-0.488 2.455,-0.496 3.63,-0.021c0.104,0.038 0.658,0.258 1.525,0.646c3.862,1.75 13.541,6.571 20.1,13.504c1.82,1.917 3.287,3.875 4.366,5.829c1.267,2.3 0.43,5.196 -1.858,6.454c-0.683,0.384 -1.483,0.592 -2.292,0.592Z" style="fill:#02012d;fill-rule:nonzero;"/><path d="M849.781,1100.27l0.033,0.012c4.812,1.963 15.262,7.442 20.383,14.113c0.629,0.833 1.1,1.541 1.475,2.241c0.909,1.617 3.113,2.229 4.704,1.354c1.679,-0.929 2.284,-3.041 1.359,-4.708c-0.696,-1.267 -1.571,-2.537 -2.609,-3.775l-0.004,-0.008c-5.604,-6.884 -14.721,-11.884 -19.654,-14.254c-1.75,-0.83 -2.904,-1.313 -3.088,-1.384c-0.849,-0.354 -1.783,-0.35 -2.633,0.009c-0.854,0.358 -1.521,1.033 -1.871,1.891c-0.35,0.854 -0.337,1.796 0.021,2.646c0.358,0.85 1.025,1.508 1.879,1.858l0.005,0.005Zm24.925,19.429c-1.717,-0 -3.309,-0.938 -4.155,-2.442c-0.35,-0.65 -0.791,-1.308 -1.375,-2.087c-5.129,-6.68 -16.046,-12.15 -19.837,-13.7l-0.042,-0.013c-1.171,-0.479 -2.087,-1.383 -2.579,-2.55c-0.496,-1.167 -0.504,-2.454 -0.029,-3.629c0.479,-1.175 1.387,-2.1 2.562,-2.592c1.171,-0.487 2.454,-0.491 3.621,-0.012c0.183,0.075 1.359,0.566 3.15,1.417c5.034,2.416 14.329,7.52 20.096,14.6c1.083,1.299 2.004,2.633 2.742,3.966c1.266,2.292 0.429,5.183 -1.859,6.454c-0.704,0.392 -1.479,0.588 -2.295,0.588Z" style="fill:#02012d;fill-rule:nonzero;"/><path d="M860.093,1083.1c-1.525,0 -2.892,1.021 -3.325,2.483c-0.45,1.534 0.229,3.217 1.621,3.996l0.717,0.313c4.337,1.279 16.829,6.108 22.504,12.996c0.312,0.383 0.608,0.762 0.875,1.158c1.037,1.496 3.262,1.933 4.816,0.879c0.763,-0.525 1.275,-1.317 1.442,-2.225c0.167,-0.908 -0.033,-1.829 -0.558,-2.592c-0.442,-0.65 -0.917,-1.262 -1.409,-1.837l-0.004,-0c-8.029,-9.521 -23.916,-14.492 -25.7,-15.029l-0.979,-0.142Zm25.254,23.717c-1.567,-0 -3.029,-0.763 -3.921,-2.046l-0.808,-1.067c-5.471,-6.637 -17.646,-11.333 -21.871,-12.583l-0.991,-0.425c-1.934,-1.088 -2.846,-3.342 -2.217,-5.475c0.592,-2.004 2.467,-3.404 4.554,-3.404c0.463,-0 0.917,0.066 1.35,0.2c1.821,0.546 18.033,5.625 26.308,15.421c0.521,0.608 1.021,1.262 1.488,1.941c0.721,1.042 0.991,2.304 0.767,3.55c-0.23,1.25 -0.934,2.334 -1.975,3.05c-0.805,0.55 -1.734,0.838 -2.684,0.838Z" style="fill:#02012d;fill-rule:nonzero;"/><path d="M881.405,1138.45l9.442,9.437l16.029,-16.025l-8.962,-8.958l-16.509,15.546Zm9.442,10.988l-0.45,-0.188l-10.362,-10.363l-0.188,-0.462l0.2,-0.458l17.442,-16.425l0.896,0.012l9.85,9.854l-0,0.909l-16.934,16.933l-0.454,0.188Z" style="fill:#02012d;fill-rule:nonzero;"/><path d="M881.114,1045.1l-0.638,-0.642l0,-26.9l0.638,-0.642l0.641,0.642l0,26.9l-0.641,0.642Z" style="fill:#02012d;fill-rule:nonzero;"/><path d="M976.597,1018.17l-121.017,-0l-0.637,-0.642l-0,-242.8c-0,-26.833 10.454,-52.067 29.429,-71.05l129.725,-129.717l0.542,0.376l0.458,0.458l-129.817,129.791c-18.737,18.738 -29.058,43.65 -29.058,70.142l0,242.163l120.375,-0l0.625,0.637l-0.625,0.642Z" style="fill:#02012d;fill-rule:nonzero;"/><path d="M1117.43,1037.56l-140.834,0l-0.625,-0.641l0,-239.746c0,-26.838 10.417,-52.071 29.417,-71.05l100.746,-100.746l0.921,0l-0,0.908l-100.75,100.746c-18.75,18.738 -29.084,43.65 -29.084,70.142l0,239.104l139.584,0l-0,-219.916l0.204,-0.455l122.92,-122.941l0.459,-0.188c15.625,0 28.625,-5.179 38.666,-15.396c12.417,-12.654 18.084,-30.916 20.667,-44.008c2.792,-14.208 2.625,-25.546 2.625,-25.658l0,-87.904l0.625,-0.642l0.625,0.642l0,87.891c0,0.104 0.167,11.579 -2.625,25.921c-2.625,13.263 -8.375,31.775 -21,44.658c-10.25,10.409 -23.458,15.717 -39.291,15.779l-122.588,122.567l-0,220.292l-0.662,0.641Z" style="fill:#02012d;fill-rule:nonzero;"/><path d="M1095.6,1053.64l-0.625,-0.642l0,-16.079l0.625,-0.642l0.667,0.642l-0,16.079l-0.667,0.642Z" style="fill:#02012d;fill-rule:nonzero;"/><path d="M1021.68,1055.92l-0.62,-0.642l-0,-18.358l0.62,-0.642l0.671,0.642l0,18.358l-0.671,0.642Z" style="fill:#02012d;fill-rule:nonzero;"/><path d="M1140.68,534.224l-22.084,0l-0.625,-0.642l0.625,-0.641l21.917,-0l0.75,0.641l-0.583,0.642Z" style="fill:#02012d;fill-rule:nonzero;"/><path d="M1302.97,534.224l-140.25,0l-0.625,-0.642l0.625,-0.641l140.25,-0l0.625,0.641l-0.625,0.642Z" style="fill:#02012d;fill-rule:nonzero;"/></g><g><path d="M630.246,1187.69l32.729,-137.379c3.125,-13.112 -6.808,-25.695 -20.279,-25.695l-410.442,-0c-13.471,-0 -23.408,12.583 -20.283,25.695l51.358,215.563l0.129,0.508l0,35.283l-51.033,0c8.083,0 15.404,-3.275 20.696,-8.579c5.296,-5.291 8.571,-12.612 8.571,-20.696c-0,-15.229 -11.642,-27.745 -26.496,-29.133l-0,-23.079c-0,-25.913 -21.005,-46.913 -46.913,-46.913c-12.954,0 -24.679,5.25 -33.17,13.742l-0.659,0.683l0,-71.891c0,-91.183 73.929,-165.113 165.117,-165.113l75.771,0c-0,15.467 6.15,29.492 16.149,39.763c10.355,10.65 24.838,17.266 40.871,17.266l17.159,0c16.029,0 30.508,-6.616 40.866,-17.266c10.005,-10.271 16.15,-24.296 16.15,-39.763l87.446,0c31.463,0 61.654,12.505 83.896,34.75l158.208,158.209c58.309,58.308 17.009,158.02 -65.458,158.02l-159.137,0l-0,-35.283l18.754,-78.692Z" style="fill:#fff;fill-rule:nonzero;"/><path d="M461.192,1129.57c-0,-13.092 -10.621,-23.713 -23.725,-23.713c-13.088,0 -23.709,10.621 -23.709,23.713c0,13.1 10.621,23.721 23.709,23.721c13.104,-0 23.725,-10.621 23.725,-23.721Zm181.504,-104.962c13.471,-0 23.404,12.583 20.279,25.695l-32.729,137.379l-18.754,78.692l-348.034,0l-0.129,-0.508l-51.358,-215.563c-3.125,-13.112 6.812,-25.695 20.283,-25.695l410.442,-0Z" style="fill:#ffb500;fill-rule:nonzero;"/><path d="M295.742,1285.28c-0,-3.937 -3.192,-7.125 -7.138,-7.125c-3.942,0 -7.129,3.188 -7.129,7.125c-0,3.95 3.187,7.138 7.129,7.138c3.946,-0 7.138,-3.188 7.138,-7.138Zm33.866,6.834l0,-13.667l-13.675,-0l0,13.667l13.675,-0Zm281.884,-25.738l-0,35.283l-348.034,0l0,-35.283l348.034,0Z" style="fill:#ffb500;fill-rule:nonzero;"/><path d="M549.575,875.874l-0,-68.083l29.312,-0c1.863,-0 3.371,1.508 3.371,3.37l0,61.338c0,1.867 -1.508,3.375 -3.371,3.375l-29.312,0Z" style="fill:#000057;fill-rule:nonzero;"/><path d="M498.275,728.478c-1.042,-0.054 -2.096,-0.083 -3.146,-0.083l-108.208,-0c-1.063,-0 -2.109,0.029 -3.15,0.083c-30.067,1.642 -54.017,26.621 -54.017,57.088l0,22.225l-15.142,-0l0,-22.225c0,-39.884 32.442,-72.313 72.309,-72.313l108.208,0c39.871,0 72.304,32.429 72.304,72.313l0,22.225l-15.133,-0l0,-22.225c0,-30.48 -23.958,-55.446 -54.025,-57.088Z" style="fill:#fff;fill-rule:nonzero;"/><path d="M552.3,798.962l0,4.662l-0.008,-0c-5.092,0.479 -9.08,4.762 -9.08,9.979l0,14.709l-23.462,-0l-0,-56.48c-0,-2.787 -3.125,-4.458 -5.413,-2.87c-10.279,7.079 -34.816,20.866 -70.133,20.866c-36.679,0 -65.979,-14.871 -77.446,-21.671c-2.308,-1.366 -5.212,0.313 -5.212,3.005l-0,58.408l-23.217,-0l0,-16.638c0,-4.958 -3.75,-9.037 -8.575,-9.546l0,-4.479c7.929,-30.045 27.687,-55.287 54.017,-70.429c1.041,-0.054 2.087,-0.083 3.15,-0.083l108.208,-0c1.05,-0 2.104,0.029 3.146,0.083c26.333,15.142 46.104,40.404 54.025,70.484Z" style="fill:#02012d;fill-rule:nonzero;"/><path d="M479.083,950.682l27.454,0c0,15.467 -6.145,29.492 -16.15,39.763l-20.008,-20.013c4.987,-5.195 8.208,-12.095 8.704,-19.75Z" style="fill:#2c42ce;fill-rule:nonzero;"/><path d="M490.387,990.445c-10.358,10.65 -24.837,17.266 -40.866,17.266l-8.246,0l0,-27.508l6.246,0c8.983,0 17.096,-3.737 22.858,-9.771l20.008,20.013Z" style="fill:#2c42ce;fill-rule:nonzero;"/><path d="M402.792,950.682c-0.055,-0.696 -0.075,-1.412 -0.075,-2.125l-0,-11.725c11.983,4.238 24.883,6.538 38.312,6.538c13.362,-0 26.192,-2.275 38.121,-6.475l0.012,0.021l0,11.641c0,0.713 -0.021,1.429 -0.079,2.125c-0.496,7.655 -3.717,14.555 -8.704,19.75c-5.762,6.034 -13.875,9.771 -22.858,9.771l-13.167,0c-8.979,0 -17.091,-3.737 -22.85,-9.771c-4.987,-5.195 -8.212,-12.095 -8.712,-19.75Z" style="fill:#cc957f;fill-rule:nonzero;"/><path d="M461.567,859.928c-0,2.171 0.287,4.263 0.808,6.258l-0.229,0.067c-0.513,1.3 -1.129,2.546 -1.854,3.729l-0.025,-0.008c-2.405,-0.567 -4.925,-0.871 -7.505,-0.871c-8.524,0 -16.279,3.267 -22.108,8.604c-1.821,-1.008 -3.488,-2.266 -4.954,-3.733c-4.025,-4.021 -6.509,-9.575 -6.509,-15.704l0,-0.292l7.146,0l0,4.696c0,1.617 1.317,2.929 2.93,2.929l21.737,0c1.617,0 2.929,-1.312 2.929,-2.929l0,-4.696l7.634,0l0.079,0.008c-0.054,0.642 -0.079,1.292 -0.079,1.942Z" style="fill:#02012d;fill-rule:nonzero;"/><path d="M460.267,869.974l0.025,0.008c-3.93,6.305 -10.913,10.5 -18.884,10.5c-3.896,0 -7.562,-1.008 -10.754,-2.775c5.829,-5.337 13.584,-8.604 22.108,-8.604c2.58,0 5.1,0.304 7.505,0.871Z" style="fill:#ff5c80;fill-rule:nonzero;"/><path d="M437.467,1105.86c13.104,0 23.725,10.621 23.725,23.713c-0,13.1 -10.621,23.721 -23.725,23.721c-13.088,-0 -23.709,-10.621 -23.709,-23.721c0,-13.092 10.621,-23.713 23.709,-23.713Z" style="fill:#00315a;fill-rule:nonzero;"/><path d="M453.933,857.978l0,4.696c0,1.617 -1.312,2.929 -2.929,2.929l-21.737,0c-1.613,0 -2.93,-1.312 -2.93,-2.929l0,-4.696l27.596,0Z" style="fill:#fff;fill-rule:nonzero;"/><path d="M450.462,839.136c2.105,0 3.817,1.705 3.817,3.817c0,2.104 -1.712,3.809 -3.817,3.809c-2.112,-0 -3.82,-1.705 -3.82,-3.809c-0,-2.112 1.708,-3.817 3.82,-3.817Z" style="fill:#02012d;fill-rule:nonzero;"/><path d="M446.642,842.953c-0,2.104 1.708,3.809 3.82,3.809c2.105,-0 3.817,-1.705 3.817,-3.809c0,-2.112 -1.712,-3.817 -3.817,-3.817c-2.112,0 -3.82,1.705 -3.82,3.817Zm4.058,6.117c-2.429,-0 -4.617,-1.029 -6.15,-2.675c-1.408,-1.509 -2.267,-3.529 -2.267,-5.742c0,-4.65 3.775,-8.417 8.417,-8.417c4.654,0 8.421,3.767 8.421,8.417c-0,4.646 -3.767,8.417 -8.421,8.417Z" style="fill:#fff;fill-rule:nonzero;"/><path d="M552.3,803.624l0,4.167l-2.725,-0l-0,58.754c-11.558,32.821 -37.592,58.821 -70.425,70.35c-11.929,4.2 -24.759,6.475 -38.121,6.475c-13.429,-0 -26.329,-2.3 -38.312,-6.538c-32.759,-11.554 -58.709,-37.529 -70.255,-70.3l0,-58.741l-2.708,-0l0,-4.405c4.825,0.509 8.575,4.588 8.575,9.546l0,16.638l23.217,-0l-0,-58.408c-0,-2.692 2.904,-4.371 5.212,-3.005c11.467,6.8 40.767,21.671 77.446,21.671c35.317,0 59.854,-13.787 70.133,-20.866c2.288,-1.588 5.413,0.083 5.413,2.87l-0,56.48l23.462,-0l0,-14.709c0,-5.217 3.988,-9.5 9.08,-9.979l0.008,-0Zm-110.404,37.029c-0,-4.65 -3.767,-8.417 -8.421,-8.417c-4.642,0 -8.413,3.767 -8.413,8.417c0,4.646 3.771,8.417 8.413,8.417l0.796,-0.042c0.454,-1.529 1.862,-2.633 3.533,-2.633l6.746,-0c1.533,1.646 3.721,2.675 6.15,2.675c4.654,-0 8.421,-3.771 8.421,-8.417c-0,-4.65 -3.767,-8.417 -8.421,-8.417c-4.642,0 -8.417,3.767 -8.417,8.417l-0.387,0Zm20.479,25.533c-0.521,-1.995 -0.808,-4.087 -0.808,-6.258c-0,-0.65 0.025,-1.3 0.079,-1.942l-0.079,-0.008l-42.376,0l0,0.292c0,6.129 2.484,11.683 6.509,15.704c1.466,1.467 3.133,2.725 4.954,3.733c3.192,1.767 6.858,2.775 10.754,2.775c7.971,0 14.954,-4.195 18.884,-10.5c0.725,-1.183 1.341,-2.429 1.854,-3.729l0.229,-0.067Z" style="fill:#ffc3a8;fill-rule:nonzero;"/><path d="M442.283,840.653c0,2.213 0.859,4.233 2.267,5.742l-4.921,-0c1.408,-1.509 2.267,-3.529 2.267,-5.742l0.387,0Z" style="fill:#ffc3a8;fill-rule:nonzero;"/><path d="M441.275,980.203l0,27.508l-8.913,0c-16.033,0 -30.516,-6.616 -40.871,-17.266l20.013,-20.013c5.759,6.034 13.871,9.771 22.85,9.771l6.921,0Z" style="fill:#2c42ce;fill-rule:nonzero;"/><path d="M433.021,838.757c2.108,0 3.821,1.713 3.821,3.817c-0,2.104 -1.713,3.821 -3.821,3.821c-2.104,-0 -3.817,-1.717 -3.817,-3.821c0,-2.104 1.713,-3.817 3.817,-3.817Z" style="fill:#02012d;fill-rule:nonzero;"/><path d="M434.271,849.028l-0.796,0.042c-4.642,-0 -8.413,-3.771 -8.413,-8.417c0,-4.65 3.771,-8.417 8.413,-8.417c4.654,0 8.421,3.767 8.421,8.417c-0,2.213 -0.859,4.233 -2.267,5.742l-1.825,-0c-1.671,-0 -3.079,1.104 -3.533,2.633Zm-5.067,-6.454c0,2.104 1.713,3.821 3.817,3.821c2.108,-0 3.821,-1.717 3.821,-3.821c-0,-2.104 -1.713,-3.817 -3.821,-3.817c-2.104,0 -3.817,1.713 -3.817,3.817Z" style="fill:#fff;fill-rule:nonzero;"/><path d="M411.504,970.432l-20.013,20.013c-9.999,-10.271 -16.149,-24.296 -16.149,-39.763l27.45,0c0.5,7.655 3.725,14.555 8.712,19.75Z" style="fill:#2c42ce;fill-rule:nonzero;"/><path d="M332.462,807.791l0,68.083l-29.304,0c-1.866,0 -3.375,-1.508 -3.375,-3.375l0,-61.338c0,-1.862 1.509,-3.37 3.375,-3.37l29.304,-0Z" style="fill:#000057;fill-rule:nonzero;"/><rect x="315.933" y="1278.45" width="13.675" height="13.667" style="fill:#02012d;fill-rule:nonzero;"/><path d="M288.604,1278.16c3.946,0 7.138,3.188 7.138,7.125c-0,3.95 -3.192,7.138 -7.138,7.138c-3.942,-0 -7.129,-3.188 -7.129,-7.138c-0,-3.937 3.187,-7.125 7.129,-7.125Z" style="fill:#02012d;fill-rule:nonzero;"/><path d="M184.679,1277.67l0,-7.475c0,-1.938 -0.779,-3.696 -2.058,-4.975c-1.271,-1.271 -3.038,-2.063 -4.979,-2.063c-3.167,0 -5.75,2.584 -5.75,5.75l-0,10.054c-0,3.18 2.583,5.751 5.75,5.751c3.891,-0 7.037,-3.159 7.037,-7.042Zm30.517,-34.417c14.854,1.388 26.496,13.904 26.496,29.133c-0,8.084 -3.275,15.405 -8.571,20.696c-5.292,5.304 -12.613,8.579 -20.696,8.579l-26.246,0c-7.267,0 -13.929,-2.658 -19.05,-7.07c-5.358,-4.575 -9.033,-11.096 -9.967,-18.463c-0.17,-1.225 -0.25,-2.471 -0.25,-3.742c0,-8.079 3.275,-15.391 8.571,-20.695c5.292,-5.292 12.613,-8.567 20.696,-8.567l26.246,-0c0.933,-0 1.858,0.042 2.771,0.129Z" style="fill:#ffc3a8;fill-rule:nonzero;"/><path d="M186.179,1301.66l-125.396,0l0,-4.175c0,-0.974 0.033,-1.941 0.096,-2.895l106.25,-0c5.121,4.412 11.783,7.07 19.05,7.07Z" style="fill:#ffb500;fill-rule:nonzero;"/><path d="M184.679,1270.19l0,7.475c0,3.883 -3.146,7.042 -7.037,7.042c-3.167,-0 -5.75,-2.571 -5.75,-5.751l-0,-10.054c-0,-3.166 2.583,-5.75 5.75,-5.75c1.941,0 3.708,0.792 4.979,2.063c1.279,1.279 2.058,3.037 2.058,4.975Z" style="fill:#f9c7d0;fill-rule:nonzero;"/><path d="M167.129,1294.59l-38.829,-0l-0,-24.6c4.687,5.021 11.371,8.166 18.775,8.166c3.546,0 6.933,-0.725 10,-2.016l0.087,-0.013c0.934,7.367 4.609,13.888 9.967,18.463Z" style="fill:#000057;fill-rule:nonzero;"/><path d="M149.692,1257.42c-0,3.166 -2.584,5.737 -5.751,5.737l-10.054,0c-3.179,0 -5.75,-2.571 -5.75,-5.737c0,-1.942 0.792,-3.708 2.063,-4.979c1.279,-1.279 3.037,-2.059 4.975,-2.059l7.475,0c3.883,0 7.042,3.142 7.042,7.038Z" style="fill:#f9c7d0;fill-rule:nonzero;"/><path d="M99.537,1268.27c3.163,-0 5.738,-2.571 5.738,-5.738c-0,-3.896 -3.146,-7.037 -7.042,-7.037l-7.462,-0c-1.942,-0 -3.7,0.791 -4.975,2.058c-1.271,1.271 -2.063,3.029 -2.063,4.979c0,3.167 2.571,5.738 5.75,5.738l10.054,-0Zm-26.966,-13.667l-0,-15.846c-0,-25.425 20.608,-46.033 46.033,-46.033l11.65,-0c-5.587,7.712 -8.871,17.192 -8.871,27.454l0,32.287c0,5.9 1.979,11.338 5.346,15.676c-2.429,4.533 -6.021,8.329 -10.379,11.008c-4.375,2.679 -9.513,4.221 -15.017,4.221c-12.404,-0 -22.991,-7.867 -27.025,-18.896c-1.12,-3.079 -1.737,-6.4 -1.737,-9.871Z" style="fill:#ffc3a8;fill-rule:nonzero;"/><path d="M143.941,1263.16c3.167,0 5.751,-2.571 5.751,-5.737c-0,-3.896 -3.159,-7.038 -7.042,-7.038l-7.475,0c-1.938,0 -3.696,0.78 -4.975,2.059c-1.271,1.271 -2.063,3.037 -2.063,4.979c0,3.166 2.571,5.737 5.75,5.737l10.054,0Zm-17.212,4.98c-3.367,-4.338 -5.346,-9.776 -5.346,-15.676l0,-32.287c0,-10.262 3.284,-19.742 8.871,-27.454c1.267,-1.779 2.675,-3.459 4.2,-5.034l0.659,-0.683c8.491,-8.492 20.216,-13.742 33.17,-13.742c25.908,0 46.913,21 46.913,46.913l-0,23.079c-0.913,-0.087 -1.838,-0.129 -2.771,-0.129l-26.246,-0c-8.083,-0 -15.404,3.275 -20.696,8.567c-5.296,5.304 -8.571,12.616 -8.571,20.695c0,1.271 0.08,2.517 0.25,3.742l-0.087,0.013c-3.067,1.291 -6.454,2.016 -10,2.016c-7.404,0 -14.088,-3.145 -18.775,-8.166c-0.563,-0.588 -1.083,-1.205 -1.571,-1.854Z" style="fill:#ffc3a8;fill-rule:nonzero;"/><path d="M116.35,1279.14c4.358,-2.679 7.95,-6.475 10.379,-11.008c0.488,0.649 1.008,1.266 1.571,1.854l-0,24.6l-67.421,-0c0.704,-11.713 5.696,-22.267 13.429,-30.121c4.034,11.029 14.621,18.896 27.025,18.896c5.504,-0 10.642,-1.542 15.017,-4.221Z" style="fill:#000057;fill-rule:nonzero;"/><path d="M105.275,1262.53c-0,3.167 -2.575,5.738 -5.738,5.738l-10.054,-0c-3.179,-0 -5.75,-2.571 -5.75,-5.738c0,-1.95 0.792,-3.708 2.063,-4.979c1.275,-1.267 3.033,-2.058 4.975,-2.058l7.462,-0c3.896,-0 7.042,3.141 7.042,7.037Z" style="fill:#f9c7d0;fill-rule:nonzero;"/><path d="M60.879,1294.59c-0.063,0.954 -0.096,1.921 -0.096,2.895l0,4.175l-31.296,0c-5.854,0 -11.149,-2.375 -14.987,-6.204c-3.829,-3.837 -6.204,-9.133 -6.204,-14.987c-0,-6.792 3.212,-12.875 8.266,-16.759l0.084,0.109l8.458,8.458c0.696,0.696 1.608,1.042 2.521,1.042c0.912,-0 1.821,-0.346 2.512,-1.042c2.692,-2.687 2.692,-7.058 0,-9.75l-3.087,-3.092l0.4,-0.041c25.454,-2.517 38.562,-9.904 45.121,-15.804l-0,11.008c-0,3.471 0.617,6.792 1.737,9.871c-7.733,7.854 -12.725,18.408 -13.429,30.121Z" style="fill:#ffc3a8;fill-rule:nonzero;"/><path d="M30.137,1262.53c2.692,2.692 2.692,7.063 0,9.75c-0.691,0.696 -1.6,1.042 -2.512,1.042c-0.913,-0 -1.825,-0.346 -2.521,-1.042l-8.458,-8.458l-0.084,-0.109c2.963,-2.291 6.55,-3.82 10.488,-4.275l3.087,3.092Z" style="fill:#f9c7d0;fill-rule:nonzero;"/><path d="M552.3,799.366l-0.392,-0.3c-7.741,-29.413 -27.362,-55.013 -53.833,-70.229l-0.013,-0.005l-0.216,-0.362l0.616,-0.35l0.013,0.008c26.658,15.325 46.421,41.104 54.221,70.729l-0.292,0.496l-0.104,0.013Z" style="fill:#02012d;fill-rule:nonzero;"/><path d="M329.742,799.357l-0.409,-0.408l0.021,-0.125l0.004,-0.021c7.813,-29.591 27.567,-55.354 54.209,-70.675l0.016,-0.008l0.613,0.35l-0.221,0.362l-0.008,0.005c-26.446,15.212 -46.067,40.791 -53.826,70.174l-0.004,0.021l-0.395,0.325Z" style="fill:#02012d;fill-rule:nonzero;"/><path d="M441.029,943.778c-13.204,0 -26.142,-2.208 -38.45,-6.562c-32.642,-11.513 -58.996,-37.884 -70.5,-70.546l-0.175,-0.496l0.258,-0.512l0.517,0.258l0.162,0.462c11.43,32.45 37.596,58.634 70.013,70.067c12.217,4.321 25.062,6.517 38.175,6.517c13.037,-0 25.817,-2.171 37.988,-6.455c32.5,-11.412 58.737,-37.62 70.179,-70.099l0.008,-0.026l0.384,-0.279l0.408,0.404l-0.034,0.159l-0.004,0.012c-11.521,32.713 -37.941,59.105 -70.675,70.596c-12.254,4.313 -25.125,6.5 -38.254,6.5Z" style="fill:#02012d;fill-rule:nonzero;"/><path d="M433.475,849.478c-4.862,0 -8.821,-3.958 -8.821,-8.821c0,-4.866 3.959,-8.825 8.821,-8.825c4.867,0 8.825,3.959 8.825,8.825c-0,2.238 -0.846,4.375 -2.375,6.013l-0.575,0.021l-0.021,-0.575c1.392,-1.488 2.158,-3.43 2.158,-5.459c0,-4.42 -3.591,-8.012 -8.012,-8.012c-4.413,-0 -8.008,3.592 -8.008,8.012c-0,4.417 3.595,8.009 8.008,8.009l0.725,-0.042l0.083,0.404l-0.012,0.408l-0.796,0.042Z" style="fill:#02012d;fill-rule:nonzero;"/><path d="M450.7,832.645c-4.417,-0 -8.008,3.592 -8.008,8.012c-0,2.029 0.766,3.971 2.158,5.459c1.504,1.621 3.637,2.55 5.85,2.55c4.421,-0 8.013,-3.592 8.013,-8.009c-0,-4.42 -3.592,-8.012 -8.013,-8.012Zm-0,16.833c-2.442,0 -4.788,-1.025 -6.446,-2.808c-1.533,-1.638 -2.375,-3.775 -2.375,-6.013c0,-4.866 3.958,-8.825 8.821,-8.825c4.867,0 8.825,3.959 8.825,8.825c-0,4.863 -3.958,8.821 -8.825,8.821Z" style="fill:#02012d;fill-rule:nonzero;"/><path d="M444.562,854.174l-6.758,-0c-1.092,-0 -2.125,-0.425 -2.9,-1.204c-0.771,-0.783 -1.191,-1.809 -1.191,-2.888c-0,-0.396 0.054,-0.779 0.166,-1.166c0.521,-1.754 2.1,-2.93 3.925,-2.93l6.746,0l0.412,0.409l-0.4,0.404l-6.758,-0c-1.462,-0 -2.729,0.942 -3.146,2.346l-0.133,0.937c-0,0.867 0.338,1.688 0.958,2.317c0.617,0.621 1.442,0.962 2.321,0.962l6.758,0l0.409,0.409l-0.409,0.404Z" style="fill:#02012d;fill-rule:nonzero;"/><path d="M441.408,880.891c-3.825,-0 -7.612,-0.98 -10.946,-2.83c-1.858,-1.025 -3.554,-2.304 -5.05,-3.8c-4.275,-4.27 -6.625,-9.95 -6.625,-15.991l0,-0.292l0.404,-0.408l42.376,-0l0.408,0.408l-0.408,0.404l-41.967,0c0.029,5.779 2.296,11.213 6.387,15.304c1.442,1.442 3.084,2.676 4.867,3.663c3.217,1.783 6.867,2.725 10.554,2.725c7.584,-0 14.517,-3.85 18.538,-10.304c0.708,-1.154 1.321,-2.388 1.816,-3.667l0.529,-0.229l0.234,0.525c-0.521,1.325 -1.154,2.604 -1.888,3.796c-4.17,6.7 -11.362,10.696 -19.229,10.696Z" style="fill:#02012d;fill-rule:nonzero;"/><path d="M471.621,880.161l-0.238,-0.075c-4.616,-3.387 -7.954,-8.287 -9.404,-13.795c-0.542,-2.075 -0.817,-4.217 -0.817,-6.363c0,-0.7 0.03,-1.367 0.075,-1.975c0.596,-7.608 4.579,-14.433 10.929,-18.729l0.567,0.108l-0.108,0.563c-6.15,4.158 -10.004,10.762 -10.571,18.125c-0.05,0.587 -0.079,1.229 -0.079,1.908c-0,2.079 0.271,4.15 0.792,6.159c1.4,5.329 4.633,10.066 9.1,13.341l0.087,0.567l-0.333,0.166Z" style="fill:#02012d;fill-rule:nonzero;"/><path d="M451.004,866.007l-21.737,0c-1.838,0 -3.334,-1.495 -3.334,-3.333l0,-4.696l0.404,-0.408l0.409,0.408l-0,4.696c-0,1.387 1.129,2.521 2.521,2.521l21.737,-0c1.392,-0 2.525,-1.134 2.525,-2.521l0,-4.696l0.404,-0.408l0.409,0.408l-0,4.696c-0,1.838 -1.496,3.333 -3.338,3.333Z" style="fill:#02012d;fill-rule:nonzero;"/><path d="M450.462,839.541c-1.883,-0 -3.412,1.533 -3.412,3.412c-0,1.875 1.529,3.4 3.412,3.4c1.884,0 3.413,-1.525 3.413,-3.4c-0,-1.879 -1.529,-3.412 -3.413,-3.412Zm0,7.629c-2.329,-0 -4.225,-1.892 -4.225,-4.217c0,-2.329 1.896,-4.225 4.225,-4.225c2.33,0 4.226,1.896 4.226,4.225c-0,2.325 -1.896,4.217 -4.226,4.217Z" style="fill:#02012d;fill-rule:nonzero;"/><path d="M433.021,839.166c-1.879,-0 -3.413,1.529 -3.413,3.408c0,1.883 1.534,3.412 3.413,3.412c1.883,0 3.412,-1.529 3.412,-3.412c0,-1.879 -1.529,-3.408 -3.412,-3.408Zm-0,7.633c-2.329,-0 -4.225,-1.896 -4.225,-4.225c-0,-2.329 1.896,-4.225 4.225,-4.225c2.329,0 4.225,1.896 4.225,4.225c-0,2.329 -1.896,4.225 -4.225,4.225Z" style="fill:#02012d;fill-rule:nonzero;"/><path d="M549.983,875.466l28.904,-0c1.634,-0 2.967,-1.329 2.967,-2.967l-0,-61.338c-0,-1.633 -1.333,-2.966 -2.967,-2.966l-28.904,-0l0,67.271Zm28.904,0.812l-29.312,0l-0.404,-0.404l-0,-68.083l0.404,-0.409l29.312,0c2.084,0 3.78,1.696 3.78,3.779l-0,61.338c-0,2.083 -1.696,3.779 -3.78,3.779Z" style="fill:#02012d;fill-rule:nonzero;"/><path d="M303.158,808.195c-1.637,-0 -2.967,1.333 -2.967,2.966l0,61.338c0,1.638 1.33,2.967 2.967,2.967l28.896,-0l0,-67.271l-28.896,-0Zm29.304,68.083l-29.304,0c-2.083,0 -3.779,-1.696 -3.779,-3.779l-0,-61.338c-0,-2.083 1.696,-3.779 3.779,-3.779l29.304,0l0.409,0.409l-0,68.083l-0.409,0.404Z" style="fill:#02012d;fill-rule:nonzero;"/><path d="M361.546,829.978l-23.217,0l-0.404,-0.408l-0,-16.638c-0,-4.716 -3.529,-8.646 -8.217,-9.141l-0.362,-0.446l0.446,-0.363c5.1,0.538 8.945,4.817 8.945,9.95l0,16.23l22.4,-0l0,-58c0,-1.421 0.734,-2.684 1.963,-3.384c1.217,-0.7 2.662,-0.683 3.867,0.029c10.954,6.496 40.416,21.613 77.237,21.613c34.55,-0 58.629,-13.029 69.904,-20.796c1.192,-0.825 2.671,-0.912 3.963,-0.237c1.287,0.674 2.087,1.995 2.087,3.445l0,56.071l22.646,0l-0,-14.3c-0,-5.412 4.063,-9.879 9.446,-10.383l0.446,0.367l-0.367,0.441c-4.966,0.467 -8.708,4.583 -8.708,9.575l-0,14.709l-0.409,0.408l-23.462,-0l-0.404,-0.408l-0,-56.48c-0,-1.166 -0.621,-2.183 -1.654,-2.725c-1.017,-0.533 -2.18,-0.462 -3.121,0.188c-11.354,7.821 -35.596,20.942 -70.367,20.942c-37.025,-0 -66.642,-15.196 -77.65,-21.73c-0.954,-0.562 -2.092,-0.575 -3.054,-0.025c-0.967,0.555 -1.55,1.555 -1.55,2.68l-0,58.408l-0.404,0.408Z" style="fill:#02012d;fill-rule:nonzero;"/><path d="M567.433,808.207l-0.408,-0.396l-0,-22.245c-0,-39.65 -32.25,-71.905 -71.896,-71.905l-108.208,0c-39.646,0 -71.9,32.255 -71.9,71.905l-0,22.225l-0.409,0.416l-0.408,-0.396l0,-22.245c0,-40.096 32.621,-72.721 72.717,-72.721l108.208,-0c40.092,-0 72.709,32.625 72.709,72.721l-0,22.225l-0.405,0.416Z" style="fill:#02012d;fill-rule:nonzero;"/><path d="M552.3,808.207l-0.408,-0.396l-0,-22.245c-0,-30.146 -23.559,-55.042 -53.642,-56.68c-1.084,-0.058 -2.133,-0.087 -3.121,-0.087l-108.208,-0c-1.009,-0 -2.034,0.029 -3.134,0.087c-30.07,1.638 -53.629,26.534 -53.629,56.68l0,22.225l-0.404,0.416l-0.408,-0.396l-0,-22.245c-0,-30.575 23.895,-55.829 54.4,-57.492c1.112,-0.058 2.15,-0.087 3.175,-0.087l108.208,-0c1.004,-0 2.071,0.029 3.167,0.087c30.512,1.663 54.408,26.917 54.408,57.492l0,22.225l-0.404,0.416Z" style="fill:#02012d;fill-rule:nonzero;"/><path d="M447.521,980.611l-13.167,0c-8.829,0 -17.054,-3.516 -23.15,-9.9c-5.2,-5.412 -8.333,-12.516 -8.817,-20.004c-0.05,-0.65 -0.075,-1.358 -0.075,-2.15l0,-11.725l0.405,-0.408l0.408,0.408l-0,11.725c-0,0.771 0.025,1.459 0.075,2.092c0.475,7.3 3.525,14.225 8.596,19.5c5.941,6.225 13.954,9.65 22.558,9.65l13.167,0c8.612,0 16.625,-3.425 22.558,-9.646c5.075,-5.283 8.129,-12.204 8.604,-19.5c0.05,-0.642 0.071,-1.329 0.071,-2.096l0,-11.641l0.408,-0.405l0.409,0.405l-0,11.641c-0,0.788 -0.025,1.496 -0.079,2.155c-0.488,7.479 -3.621,14.587 -8.821,20.004c-6.096,6.379 -14.317,9.895 -23.15,9.895Z" style="fill:#02012d;fill-rule:nonzero;"/><path d="M770.629,1302.07l-159.137,-0l-0.409,-0.409l0.409,-0.404l159.137,0c37.979,0 70.608,-21.804 85.146,-56.896c14.533,-35.091 6.879,-73.575 -19.975,-100.433l-158.209,-158.208c-22.328,-22.334 -52.024,-34.634 -83.608,-34.634l-114.9,0l-0.408,-0.404l0.404,-0.408l114.904,0c31.804,0 61.696,12.383 84.188,34.871l158.204,158.208c27.092,27.092 34.817,65.917 20.15,101.317c-14.663,35.404 -47.579,57.4 -85.896,57.4Z" style="fill:#02012d;fill-rule:nonzero;"/><path d="M134.454,1188.1l-0.408,-0.409l-0,-71.887c-0,-91.271 74.25,-165.525 165.521,-165.525l103.225,0l0.416,0.408l-0.404,0.404l-103.237,0c-90.821,0 -164.709,73.892 -164.709,164.713l0,71.887l-0.404,0.409Z" style="fill:#02012d;fill-rule:nonzero;"/><path d="M212.425,1302.07l-0.404,-0.409l0.404,-0.404c7.717,0 14.962,-3.004 20.408,-8.462c5.45,-5.45 8.45,-12.696 8.45,-20.404c0,-14.988 -11.233,-27.338 -26.129,-28.734c-0.896,-0.083 -1.812,-0.129 -2.729,-0.129l-26.246,0c-7.712,0 -14.958,3.004 -20.408,8.454c-5.446,5.459 -8.45,12.705 -8.45,20.409c-0,1.308 0.079,2.516 0.242,3.683c0.9,7.096 4.391,13.558 9.833,18.208c5.217,4.496 11.883,6.975 18.783,6.975l0.404,0.404l-0.404,0.409c-7.096,-0 -13.95,-2.546 -19.312,-7.171c-5.596,-4.779 -9.184,-11.425 -10.109,-18.721c-0.171,-1.196 -0.25,-2.441 -0.25,-3.787c0,-7.921 3.084,-15.371 8.688,-20.984c5.6,-5.604 13.054,-8.691 20.983,-8.691l26.246,-0c0.941,-0 1.887,0.045 2.804,0.133c15.317,1.433 26.871,14.129 26.871,29.542c0,7.925 -3.092,15.375 -8.688,20.979c-5.6,5.608 -13.05,8.7 -20.987,8.7Z" style="fill:#02012d;fill-rule:nonzero;"/><path d="M172.771,1246.62l-0.408,-0.404l-0,-20.5c-0.034,-0.292 -0.746,-8.305 11.174,-20.034l0.58,0.009l-0.009,0.575c-11.641,11.454 -10.937,19.329 -10.929,19.408l0,20.542l-0.408,0.404Z" style="fill:#02012d;fill-rule:nonzero;"/><path d="M147.075,1278.57c-7.2,-0 -14.154,-3.025 -19.071,-8.296c-0.558,-0.579 -1.083,-1.2 -1.6,-1.888c-3.554,-4.583 -5.429,-10.091 -5.429,-15.921l-0,-32.287c-0,-10.033 3.092,-19.608 8.95,-27.692c1.25,-1.758 2.675,-3.466 4.233,-5.079l0.667,-0.687c8.937,-8.938 20.821,-13.863 33.458,-13.863c26.088,0 47.317,21.229 47.317,47.321l-0,23.267l-0.404,0.404l-0.409,-0.404l0,-23.267c0,-25.646 -20.862,-46.504 -46.504,-46.504c-12.421,-0 -24.096,4.837 -32.883,13.621l-0.654,0.679c-1.529,1.583 -2.929,3.262 -4.163,4.987c-5.754,7.946 -8.791,17.354 -8.791,27.217l-0,32.287c-0,5.651 1.816,10.984 5.258,15.425c0.5,0.671 1.004,1.263 1.542,1.821c4.775,5.113 11.508,8.042 18.483,8.042c3.396,-0 6.708,-0.667 9.842,-1.983l0.533,0.216l-0.217,0.534c-3.233,1.358 -6.65,2.05 -10.158,2.05Z" style="fill:#02012d;fill-rule:nonzero;"/><path d="M173.096,1224.55l-0.325,-0.162l0.079,-0.571c0.075,-0.055 7.383,-5.392 17.862,-2.525l0.284,0.495l-0.5,0.288c-10.088,-2.754 -17.088,2.342 -17.154,2.396l-0.246,0.079Z" style="fill:#02012d;fill-rule:nonzero;"/><path d="M101.333,1283.77c-12.2,-0 -23.216,-7.7 -27.408,-19.163c-1.167,-3.216 -1.763,-6.583 -1.763,-10.008l0,-15.846c0,-25.608 20.834,-46.437 46.442,-46.437l11.65,-0l0.404,0.404l-0.404,0.408l-11.65,0c-25.158,0 -45.625,20.467 -45.625,45.625l-0,15.846c-0,3.329 0.575,6.604 1.713,9.733c4.07,11.142 14.783,18.625 26.641,18.625c5.246,0 10.367,-1.437 14.8,-4.158c4.304,-2.642 7.838,-6.392 10.225,-10.838l0.371,-0.237l0.409,0.4l-0.051,0.204c-2.458,4.584 -6.095,8.442 -10.525,11.163c-4.57,2.8 -9.833,4.279 -15.229,4.279Z" style="fill:#02012d;fill-rule:nonzero;"/><path d="M263.458,1302.07l-196.625,-0l-0.408,-0.409l0.408,-0.404l196.625,0l0.409,0.404l-0.409,0.409Z" style="fill:#02012d;fill-rule:nonzero;"/><path d="M60.783,1302.07l-0.408,-0.409l-0,-4.175c-0,-0.974 0.033,-1.958 0.1,-2.925c0.687,-11.416 5.496,-22.208 13.542,-30.375l0.575,-0.008l0.004,0.575c-7.908,8.034 -12.634,18.638 -13.313,29.863c-0.062,0.95 -0.091,1.912 -0.091,2.87l-0,4.175l-0.409,0.409Z" style="fill:#02012d;fill-rule:nonzero;"/><path d="M128.3,1295l-0.408,-0.408l-0,-24.6l0.408,-0.421l0.408,0.387l0,24.634l-0.408,0.408Z" style="fill:#02012d;fill-rule:nonzero;"/><path d="M167.129,1295l-106.25,-0l-0.454,-0.408l0.358,-0.409l106.346,0l0.408,0.409l-0.408,0.408Z" style="fill:#02012d;fill-rule:nonzero;"/><path d="M66.833,1302.07l-37.346,-0c-5.762,-0 -11.183,-2.246 -15.275,-6.325c-4.075,-4.088 -6.32,-9.513 -6.32,-15.279c-0,-6.738 3.066,-12.963 8.42,-17.075c3.105,-2.404 6.8,-3.909 10.688,-4.359l0.416,-0.046c25.463,-2.516 38.467,-9.924 44.884,-15.7l0.571,0.021l-0,0.559l-0.013,0.012c-6.525,5.867 -19.675,13.379 -45.366,15.921l-0.409,0.046c-3.729,0.429 -7.287,1.879 -10.275,4.187c-5.15,3.959 -8.104,9.95 -8.104,16.434c0,5.55 2.158,10.77 6.083,14.704c3.934,3.925 9.155,6.087 14.7,6.087l37.346,0l0.409,0.404l-0.409,0.409Z" style="fill:#02012d;fill-rule:nonzero;"/><path d="M177.642,1263.57c-2.946,-0 -5.342,2.396 -5.342,5.341l-0,10.054c-0,2.946 2.396,5.342 5.342,5.342c3.658,0 6.633,-2.975 6.633,-6.633l-0,-7.475c-0,-1.771 -0.688,-3.438 -1.942,-4.688c-1.254,-1.254 -2.916,-1.941 -4.691,-1.941Zm-0,21.55c-3.396,-0 -6.159,-2.763 -6.159,-6.155l0,-10.054c0,-3.395 2.763,-6.158 6.159,-6.158c1.987,0 3.862,0.775 5.266,2.179c1.404,1.409 2.179,3.279 2.179,5.267l0,7.475c0,4.104 -3.341,7.446 -7.445,7.446Z" style="fill:#02012d;fill-rule:nonzero;"/><path d="M135.175,1250.79c-1.771,-0 -3.437,0.691 -4.688,1.941c-1.25,1.254 -1.941,2.917 -1.941,4.692c-0,2.937 2.396,5.329 5.341,5.329l10.054,0c2.946,0 5.342,-2.392 5.342,-5.329c0,-3.659 -2.975,-6.633 -6.633,-6.633l-7.475,-0Zm8.766,12.779l-10.054,-0c-3.395,-0 -6.158,-2.759 -6.158,-6.146c0,-1.992 0.775,-3.863 2.183,-5.267c1.405,-1.404 3.275,-2.179 5.263,-2.179l7.475,-0c4.108,-0 7.446,3.337 7.446,7.446c-0,3.387 -2.763,6.146 -6.155,6.146Z" style="fill:#02012d;fill-rule:nonzero;"/><path d="M90.771,1255.89c-1.763,-0 -3.425,0.692 -4.692,1.946c-1.25,1.245 -1.942,2.912 -1.942,4.687c0,2.938 2.4,5.329 5.346,5.329l10.054,0c2.938,0 5.33,-2.391 5.33,-5.329c-0,-3.658 -2.975,-6.633 -6.634,-6.633l-7.462,-0Zm8.766,12.779l-10.054,0c-3.396,0 -6.158,-2.758 -6.158,-6.146c-0,-1.991 0.779,-3.862 2.183,-5.267c1.417,-1.404 3.288,-2.179 5.263,-2.179l7.462,0c4.108,0 7.446,3.338 7.446,7.446c0,3.388 -2.754,6.146 -6.142,6.146Z" style="fill:#02012d;fill-rule:nonzero;"/><path d="M27.625,1273.73c-1.063,0 -2.058,-0.412 -2.804,-1.162l-8.463,-8.459l0,-0.575l0.575,0l8.463,8.459c1.187,1.191 3.271,1.187 4.454,-0c2.533,-2.529 2.533,-6.646 0,-9.175l-3.088,-3.092l0,-0.575l0.575,-0l3.092,3.092c2.846,2.845 2.846,7.479 0,10.325c-0.75,0.75 -1.742,1.162 -2.804,1.162Z" style="fill:#02012d;fill-rule:nonzero;"/><path d="M611.492,1266.79l-0.101,-0.013l-0.299,-0.487l51.491,-216.075c1.459,-6.13 0.059,-12.48 -3.846,-17.421c-3.9,-4.942 -9.745,-7.775 -16.041,-7.775l-410.442,-0c-6.296,-0 -12.142,2.833 -16.042,7.775c-3.904,4.941 -5.308,11.291 -3.846,17.421l51.359,215.562l-0.3,0.492l-0.492,-0.304l-51.362,-215.563c-1.517,-6.371 -0.054,-12.975 4,-18.112c4.058,-5.138 10.137,-8.084 16.683,-8.084l410.442,0c6.541,0 12.621,2.946 16.679,8.084c4.062,5.137 5.517,11.741 4,18.112l-51.488,216.075l-0.395,0.313Z" style="fill:#02012d;fill-rule:nonzero;"/><path d="M263.867,1301.26l347.216,0l0,-34.47l-347.216,-0l-0,34.47Zm347.625,0.813l-348.034,-0l-0.404,-0.409l0,-35.283l0.404,-0.404l348.034,-0l0.404,0.404l-0,35.283l-0.404,0.409Z" style="fill:#02012d;fill-rule:nonzero;"/><path d="M437.467,1106.27c-12.851,-0 -23.305,10.454 -23.305,23.304c0,12.854 10.454,23.313 23.305,23.313c12.858,-0 23.316,-10.459 23.316,-23.313c0,-12.85 -10.458,-23.304 -23.316,-23.304Zm-0,47.429c-13.296,-0 -24.117,-10.821 -24.117,-24.125c-0,-13.3 10.821,-24.117 24.117,-24.117c13.308,0 24.129,10.817 24.129,24.117c-0,13.304 -10.821,24.125 -24.129,24.125Z" style="fill:#02012d;fill-rule:nonzero;"/><path d="M729.175,1188.1l-98.933,-0l-0.409,-0.409l0.409,-0.408l98.933,0l0.408,0.408l-0.408,0.409Z" style="fill:#02012d;fill-rule:nonzero;"/><path d="M677.183,1188.1l-0.283,-0.121l-0,-0.575l35.371,-35.358l0.575,-0l-0,0.575l-35.371,35.358l-0.292,0.121Z" style="fill:#02012d;fill-rule:nonzero;"/><path d="M449.521,1008.12l-17.159,-0c-15.637,-0 -30.258,-6.179 -41.162,-17.392c-10.492,-10.775 -16.267,-24.996 -16.267,-40.046l0.409,-0.408l0.404,0.408c-0,14.838 5.695,28.859 16.033,39.48c10.754,11.054 25.163,17.141 40.583,17.141l17.159,0c15.412,0 29.825,-6.087 40.575,-17.141c10.341,-10.621 16.037,-24.642 16.037,-39.48l0.404,-0.408l0.409,0.408c-0,15.05 -5.779,29.271 -16.263,40.046c-10.908,11.213 -25.525,17.392 -41.162,17.392Z" style="fill:#02012d;fill-rule:nonzero;"/><path d="M288.604,1278.57c-3.708,-0 -6.725,3.012 -6.725,6.716c0,3.713 3.017,6.734 6.725,6.734c3.708,-0 6.729,-3.021 6.729,-6.734c0,-3.704 -3.021,-6.716 -6.729,-6.716Zm-0,14.262c-4.154,0 -7.537,-3.383 -7.537,-7.546c-0,-4.154 3.383,-7.533 7.537,-7.533c4.159,-0 7.542,3.379 7.542,7.533c-0,4.163 -3.383,7.546 -7.542,7.546Z" style="fill:#02012d;fill-rule:nonzero;"/><path d="M316.342,1291.71l12.862,0l0,-12.854l-12.862,0l-0,12.854Zm13.266,0.813l-13.675,0l-0.404,-0.408l0,-13.663l0.404,-0.408l13.675,-0l0.409,0.408l-0,13.663l-0.409,0.408Z" style="fill:#02012d;fill-rule:nonzero;"/><path d="M441.275,1008.12l-0.404,-0.409l-0,-27.508l0.404,-0.404l0.408,0.404l0,27.508l-0.408,0.409Z" style="fill:#02012d;fill-rule:nonzero;"/><path d="M391.491,990.849l-0.287,-0.117l0,-0.575l20.008,-20.012l0.579,-0l0,0.575l-20.016,20.012l-0.284,0.117Z" style="fill:#02012d;fill-rule:nonzero;"/><path d="M490.387,990.849l-0.287,-0.117l-20.013,-20.012l0,-0.575l0.58,-0l20.012,20.012l0,0.575l-0.292,0.117Z" style="fill:#02012d;fill-rule:nonzero;"/><path d="M430.654,878.111l-0.296,-0.129l0.025,-0.575c6.13,-5.616 14.075,-8.708 22.379,-8.708c2.55,0 5.109,0.296 7.596,0.875l0.309,0.492l-0.496,0.304c-2.425,-0.571 -4.917,-0.859 -7.409,-0.859c-8.1,0 -15.854,3.017 -21.829,8.496l-0.279,0.104Z" style="fill:#02012d;fill-rule:nonzero;"/><path d="M213.583,608.607l0,-87.929c0,-8.75 -7.087,-15.837 -15.837,-15.837l-128.496,-0c-8.75,-0 -15.838,7.087 -15.838,15.837l0,87.929c0,8.75 7.088,15.838 15.838,15.838l128.496,-0c8.75,-0 15.837,-7.088 15.837,-15.838Zm-80.091,-176.6c73.25,0 132.633,59.384 132.633,132.638c-0,73.25 -59.383,132.633 -132.633,132.633c-73.251,0 -132.638,-59.383 -132.638,-132.633c-0,-73.254 59.387,-132.638 132.638,-132.638Z" style="fill:#fff;fill-rule:nonzero;"/><path d="M162.121,567.661c2.504,-1.958 2.466,-5.754 -0.071,-7.666l-40.158,-30.309c-3.192,-2.4 -7.763,-0.12 -7.763,3.871l0,61.913c0,4.041 4.658,6.308 7.838,3.808l40.154,-31.617Zm51.462,-46.983l0,87.929c0,8.75 -7.087,15.838 -15.837,15.838l-128.496,-0c-8.75,-0 -15.838,-7.088 -15.838,-15.838l0,-87.929c0,-8.75 7.088,-15.837 15.838,-15.837l128.496,-0c8.75,-0 15.837,7.087 15.837,15.837Z" style="fill:#ff6639;fill-rule:nonzero;"/><path d="M162.05,559.995c2.537,1.912 2.575,5.708 0.071,7.666l-40.154,31.617c-3.18,2.5 -7.838,0.233 -7.838,-3.808l0,-61.913c0,-3.991 4.571,-6.271 7.763,-3.871l40.158,30.309Z" style="fill:#fff;fill-rule:nonzero;"/><path d="M69.25,505.695c-8.258,-0 -14.983,6.721 -14.983,14.983l-0,87.929c-0,8.263 6.725,14.984 14.983,14.984l128.491,-0c8.263,-0 14.988,-6.721 14.988,-14.984l0,-87.929c0,-8.262 -6.725,-14.983 -14.988,-14.983l-128.491,-0Zm128.491,119.608l-128.491,0c-9.204,0 -16.696,-7.487 -16.696,-16.696l0,-87.929c0,-9.204 7.492,-16.696 16.696,-16.696l128.491,0c9.209,0 16.696,7.492 16.696,16.696l0,87.929c0,9.209 -7.487,16.696 -16.696,16.696Z" style="fill:#02012d;fill-rule:nonzero;"/><path d="M118.996,529.557c-0.609,0 -1.221,0.142 -1.8,0.434c-1.388,0.691 -2.213,2.025 -2.213,3.566l0,61.913c0,1.562 0.842,2.904 2.25,3.587c1.409,0.684 2.979,0.513 4.204,-0.45l40.155,-31.616c0.987,-0.771 1.541,-1.925 1.529,-3.171c-0.009,-1.246 -0.588,-2.392 -1.584,-3.142l-40.158,-30.308c-0.717,-0.538 -1.546,-0.813 -2.383,-0.813Zm-0.013,71.621c-0.846,0 -1.704,-0.192 -2.5,-0.579c-1.983,-0.962 -3.208,-2.925 -3.208,-5.129l-0,-61.913c-0,-2.175 1.208,-4.129 3.154,-5.1c1.946,-0.975 4.242,-0.762 5.979,0.546l40.159,30.308c1.42,1.071 2.25,2.709 2.266,4.492c0.017,1.779 -0.779,3.434 -2.183,4.533l-40.154,31.613c-1.033,0.812 -2.267,1.229 -3.513,1.229Z" style="fill:#02012d;fill-rule:nonzero;"/><path d="M133.492,432.866c-72.663,-0 -131.78,59.112 -131.78,131.779c0,72.662 59.117,131.779 131.78,131.779c72.666,0 131.779,-59.117 131.779,-131.779c-0,-72.667 -59.113,-131.779 -131.779,-131.779Zm-0,265.266c-73.609,0 -133.492,-59.883 -133.492,-133.487c0,-73.609 59.883,-133.492 133.492,-133.492c73.608,0 133.491,59.883 133.491,133.492c0,73.604 -59.883,133.487 -133.491,133.487Z" style="fill:#02012d;fill-rule:nonzero;"/><path d="M721.204,407.795l0,-114.375c0,-7.634 -6.187,-13.825 -13.837,-13.825l-219.488,-0c-7.629,-0 -13.825,6.191 -13.825,13.825l-0,114.375c-0,7.633 6.196,13.825 13.825,13.825l81.767,-0l-0,60.612l43.804,-60.612l93.917,-0c7.65,-0 13.837,-6.192 13.837,-13.825Zm-123.571,-229.463c105.73,0 191.442,85.713 191.442,191.446c-0,105.729 -85.712,191.446 -191.442,191.446c-105.733,0 -191.45,-85.717 -191.45,-191.446c0,-105.733 85.717,-191.446 191.45,-191.446Z" style="fill:#fff;fill-rule:nonzero;"/><path d="M721.204,293.42l0,114.375c0,7.633 -6.187,13.825 -13.837,13.825l-93.917,-0l-43.804,60.612l-0,-60.612l-81.767,-0c-7.629,-0 -13.825,-6.192 -13.825,-13.825l-0,-114.375c-0,-7.634 6.196,-13.825 13.825,-13.825l219.488,-0c7.65,-0 13.837,6.191 13.837,13.825Z" style="fill:#2c42ce;fill-rule:nonzero;"/><path d="M487.879,280.72c-7.004,-0 -12.7,5.696 -12.7,12.7l0,114.375c0,7.004 5.696,12.7 12.7,12.7l81.767,-0c0.62,-0 1.125,0.504 1.125,1.125l-0,57.133l41.766,-57.792l0.913,-0.466l93.917,-0c7.008,-0 12.712,-5.696 12.712,-12.7l0,-114.375c0,-7.004 -5.704,-12.7 -12.712,-12.7l-219.488,-0Zm81.767,202.637l-0.346,-0.054c-0.463,-0.15 -0.779,-0.583 -0.779,-1.071l-0,-59.487l-80.642,-0c-8.242,-0 -14.946,-6.704 -14.946,-14.95l0,-114.375c0,-8.242 6.704,-14.95 14.946,-14.95l219.488,-0c8.25,-0 14.962,6.708 14.962,14.95l-0,114.375c-0,8.246 -6.712,14.95 -14.962,14.95l-93.346,-0l-43.463,60.146l-0.912,0.466Z" style="fill:#02012d;fill-rule:nonzero;"/><path d="M597.633,179.457c-104.946,0 -190.325,85.38 -190.325,190.321c0,104.942 85.379,190.321 190.325,190.321c104.938,-0 190.317,-85.379 190.317,-190.321c-0,-104.941 -85.379,-190.321 -190.317,-190.321Zm0,382.892c-106.187,-0 -192.575,-86.388 -192.575,-192.571c0,-106.183 86.388,-192.571 192.575,-192.571c106.179,0 192.567,86.388 192.567,192.571c-0,106.183 -86.388,192.571 -192.567,192.571Z" style="fill:#02012d;fill-rule:nonzero;"/><path d="M804.946,870.316c7.646,-7.646 7.646,-20.038 -0,-27.679c-7.642,-7.642 -20.038,-7.642 -27.684,-0l-8.587,8.583l-8.725,-8.721c-7.642,-7.642 -20.038,-7.642 -27.679,-0c-7.642,7.642 -7.642,20.038 -0,27.679l36.404,36.404l36.271,-36.266Zm-36.338,-69.163c36.809,0 66.65,29.838 66.65,66.646c0,36.808 -29.841,66.65 -66.65,66.65c-36.808,-0 -66.646,-29.842 -66.646,-66.65c0,-36.808 29.838,-66.646 66.646,-66.646Z" style="fill:#fff;fill-rule:nonzero;"/><path d="M804.946,842.637c7.646,7.641 7.646,20.033 -0,27.679l-36.271,36.266l-36.404,-36.404c-7.642,-7.641 -7.642,-20.037 -0,-27.679c7.641,-7.642 20.037,-7.642 27.679,-0l8.725,8.721l8.587,-8.583c7.646,-7.642 20.042,-7.642 27.684,-0Z" style="fill:#ff5c80;fill-rule:nonzero;"/><path d="M746.108,836.999c-4.954,-0 -9.904,1.887 -13.679,5.658c-7.542,7.546 -7.542,19.821 -0,27.363l36.246,36.25l36.112,-36.113c7.546,-7.545 7.546,-19.821 0,-27.362c-7.541,-7.546 -19.816,-7.546 -27.371,-0l-8.579,8.583l-0.32,0l-8.721,-8.721c-3.775,-3.771 -8.729,-5.658 -13.688,-5.658Zm22.567,69.808l-0.158,-0.066l-36.405,-36.404c-7.716,-7.717 -7.716,-20.276 0,-27.996c7.721,-7.717 20.275,-7.717 27.996,-0l8.567,8.566l8.429,-8.429c7.721,-7.717 20.283,-7.717 28,0c7.717,7.717 7.717,20.275 0,27.996l-36.267,36.267l-0.162,0.066Z" style="fill:#02012d;fill-rule:nonzero;"/><path d="M768.608,801.374c-36.625,-0 -66.429,29.8 -66.429,66.425c-0,36.629 29.804,66.429 66.429,66.429c36.629,0 66.425,-29.8 66.425,-66.429c0,-36.625 -29.796,-66.425 -66.425,-66.425Zm0,133.296c-36.875,-0 -66.871,-29.996 -66.871,-66.871c0,-36.871 29.996,-66.871 66.871,-66.871c36.871,0 66.871,30 66.871,66.871c-0,36.875 -30,66.871 -66.871,66.871Z" style="fill:#02012d;fill-rule:nonzero;"/></g></svg>